<?xml version="1.0" encoding="utf-8"?>
<!-- Generator: Adobe Illustrator 21.0.0, SVG Export Plug-In . SVG Version: 6.00 Build 0)  -->
<svg version="1.1" id="Capa_1" xmlns="http://www.w3.org/2000/svg" xmlns:xlink="http://www.w3.org/1999/xlink" x="0px" y="0px"
	 viewBox="0 0 595.3 841.9" style="enable-background:new 0 0 595.3 841.9;" xml:space="preserve">
<style type="text/css">
	.st0{fill:#009045;}
	.st1{fill:#FFFFFF;}
	.st2{clip-path:url(#SVGID_2_);}
	.st3{fill:url(#SVGID_3_);}
	.st4{fill:#BFC8E3;}
	.st5{fill:#CED2E9;}
	.st6{fill:url(#SVGID_4_);}
	.st7{fill:#727176;}
	.st8{fill:url(#SVGID_5_);}
	.st9{fill:none;stroke:#FFFFFF;stroke-width:5;stroke-miterlimit:10;}
	.st10{fill:url(#SVGID_6_);}
	.st11{fill:none;stroke:#FFFFFF;stroke-width:26;stroke-miterlimit:10;}
	.st12{fill:none;stroke:#FFFFFF;stroke-width:20;stroke-miterlimit:10;}
</style>
<path class="st0" d="M1843.6-141.9l8.4,6.6l-1.8,2.4c0,0-5.1-2.4-5.1-2.7c-0.1-0.2-3.4-1.9-3.4-2.1c-0.1-0.2-2.1-0.4-1.8-0.9
	C1840.1-139,1843.6-141.9,1843.6-141.9z"/>
<path class="st1" d="M1642.1-9.3"/>
<g>
	<defs>
		
			<rect id="SVGID_1_" x="1503" y="76.6" transform="matrix(-1 -1.224647e-16 1.224647e-16 -1 3054.7925 264.0378)" width="48.7" height="110.8"/>
	</defs>
	<clipPath id="SVGID_2_">
		<use xlink:href="#SVGID_1_"  style="overflow:visible;"/>
	</clipPath>
	<g class="st2">
		<rect x="1511.5" y="75" style="fill:none;" width="133.2" height="146.9"/>
		
			<text transform="matrix(0.9793 0 0 1 1511.5199 178.2813)" style="fill:#C7DFDB;stroke:#C7DFDB;stroke-miterlimit:10; font-family:'Roboto-Condensed'; font-size:135.5686px;">H</text>
	</g>
</g>
<g>
	<linearGradient id="SVGID_3_" gradientUnits="userSpaceOnUse" x1="-896.742" y1="-587.1705" x2="-255.4939" y2="115.7359">
		<stop  offset="0" style="stop-color:#17988D"/>
		<stop  offset="4.409693e-02" style="stop-color:#219883"/>
		<stop  offset="0.1385" style="stop-color:#2C9872"/>
		<stop  offset="0.2428" style="stop-color:#339863"/>
		<stop  offset="0.3591" style="stop-color:#389856"/>
		<stop  offset="0.4938" style="stop-color:#3C984B"/>
		<stop  offset="0.6637" style="stop-color:#3D9843"/>
		<stop  offset="0.9831" style="stop-color:#3E9841"/>
		<stop  offset="0.9916" style="stop-color:#419943"/>
		<stop  offset="0.9947" style="stop-color:#4A9C48"/>
		<stop  offset="0.9969" style="stop-color:#57A052"/>
		<stop  offset="0.9987" style="stop-color:#67A65E"/>
		<stop  offset="1" style="stop-color:#76AD6A"/>
	</linearGradient>
	<circle class="st3" cx="-550.6" cy="-207.8" r="297.6"/>
	<g>
		<g>
			<path class="st1" d="M-506.7-147.2V-383c0-24.2-19.7-43.9-43.9-43.9l0,0c-24.2,0-43.9,19.7-43.9,43.9v235.8
				c-27.2,16.4-44.6,47.4-41.1,82.2c4,39.4,35.9,71.5,75.2,75.9c51.5,5.7,95.2-34.5,95.2-84.9C-465.2-105.1-481.9-132.3-506.7-147.2
				z"/>
			<path class="st4" d="M-550.6-12.6c-2.3,0-4.7-0.1-7.1-0.4c-27.9-3.1-51.1-26.5-54-54.4c-2.5-24,8.9-46.7,29.5-59.1l11.7-7v-114.3
				c0-10.9,8.9-19.9,19.9-19.9c10.9,0,19.9,8.9,19.9,19.9v114.3l11.7,7c18.7,11.2,29.9,30.9,29.9,52.6c0,16.4-6.4,31.8-18,43.4
				C-518.8-19-534.2-12.6-550.6-12.6C-550.6-12.6-550.6-12.6-550.6-12.6z"/>
		</g>
		<path class="st5" d="M-430.3-386.2c-20.3,0-36.9,16.5-36.9,36.9c0,20.3,16.5,36.9,36.9,36.9c20.3,0,36.9-16.5,36.9-36.9
			C-393.5-369.7-410-386.2-430.3-386.2z M-430.3-332.8c-9.1,0-16.6-7.4-16.6-16.6c0-9.1,7.4-16.6,16.6-16.6
			c9.1,0,16.6,7.4,16.6,16.6C-413.8-340.2-421.2-332.8-430.3-332.8z"/>
	</g>
</g>
<linearGradient id="SVGID_4_" gradientUnits="userSpaceOnUse" x1="410.6564" y1="-183.0598" x2="752.2267" y2="-183.0598">
	<stop  offset="0" style="stop-color:#17988D"/>
	<stop  offset="4.409693e-02" style="stop-color:#219883"/>
	<stop  offset="0.1385" style="stop-color:#2C9872"/>
	<stop  offset="0.2428" style="stop-color:#339863"/>
	<stop  offset="0.3591" style="stop-color:#389856"/>
	<stop  offset="0.4938" style="stop-color:#3C984B"/>
	<stop  offset="0.6637" style="stop-color:#3D9843"/>
	<stop  offset="0.9831" style="stop-color:#3E9841"/>
	<stop  offset="0.9916" style="stop-color:#419943"/>
	<stop  offset="0.9947" style="stop-color:#4A9C48"/>
	<stop  offset="0.9969" style="stop-color:#57A052"/>
	<stop  offset="0.9987" style="stop-color:#67A65E"/>
	<stop  offset="1" style="stop-color:#76AD6A"/>
</linearGradient>
<polygon class="st6" points="442.5,-47.8 410.7,-47.8 416.6,-188 615,-318.3 752.2,-218.9 748.7,-215.4 613.4,-296.6 439.9,-172.9 
	"/>
<g>
	<path class="st7" d="M867.3,473.4h-0.6V470v-1.8c0-0.7-0.5-1.2-1.2-1.2c-0.7,0-1.2,0.5-1.2,1.2v1.8v3.4h-4.9V470v-1.8
		c0-0.7-0.5-1.2-1.2-1.2s-1.2,0.5-1.2,1.2v1.8v3.4h-0.6c-0.5,0-1,0.4-1,1v1.6c0,0.5,0.4,1,1,1v4.7c0,0.5,0.3,1.2,0.7,1.6l2.6,2.3
		l1.1,4.7c0,3.1,2.5,5.6,5.6,5.6v-1.9c-2,0-3.7-1.6-3.7-3.7l1.1-4.7l2.6-2.3c0.4-0.4,0.7-1.1,0.7-1.6v-4.7c0.5,0,1-0.4,1-1v-1.6
		C868.3,473.8,867.8,473.4,867.3,473.4z M864.8,470.5h1.4v2.9h-1.4V470.5z M857.5,470.5h1.4v2.9h-1.4V470.5z"/>
</g>
<linearGradient id="SVGID_5_" gradientUnits="userSpaceOnUse" x1="898.64" y1="240.848" x2="1493.92" y2="240.848">
	<stop  offset="0" style="stop-color:#17988D"/>
	<stop  offset="4.409693e-02" style="stop-color:#219883"/>
	<stop  offset="0.1385" style="stop-color:#2C9872"/>
	<stop  offset="0.2428" style="stop-color:#339863"/>
	<stop  offset="0.3591" style="stop-color:#389856"/>
	<stop  offset="0.4938" style="stop-color:#3C984B"/>
	<stop  offset="0.6637" style="stop-color:#3D9843"/>
	<stop  offset="0.9831" style="stop-color:#3E9841"/>
	<stop  offset="0.9916" style="stop-color:#419943"/>
	<stop  offset="0.9947" style="stop-color:#4A9C48"/>
	<stop  offset="0.9969" style="stop-color:#57A052"/>
	<stop  offset="0.9987" style="stop-color:#67A65E"/>
	<stop  offset="1" style="stop-color:#76AD6A"/>
</linearGradient>
<rect x="898.6" y="154.5" class="st8" width="595.3" height="172.6"/>
<path class="st9" d="M-276.3,379"/>
<g>
	<linearGradient id="SVGID_6_" gradientUnits="userSpaceOnUse" x1="12.4791" y1="365" x2="568.4635" y2="365">
		<stop  offset="0" style="stop-color:#17988D"/>
		<stop  offset="4.409693e-02" style="stop-color:#219883"/>
		<stop  offset="0.1385" style="stop-color:#2C9872"/>
		<stop  offset="0.2428" style="stop-color:#339863"/>
		<stop  offset="0.3591" style="stop-color:#389856"/>
		<stop  offset="0.4938" style="stop-color:#3C984B"/>
		<stop  offset="0.6637" style="stop-color:#3D9843"/>
		<stop  offset="0.9831" style="stop-color:#3E9841"/>
		<stop  offset="0.9916" style="stop-color:#419943"/>
		<stop  offset="0.9947" style="stop-color:#4A9C48"/>
		<stop  offset="0.9969" style="stop-color:#57A052"/>
		<stop  offset="0.9987" style="stop-color:#67A65E"/>
		<stop  offset="1" style="stop-color:#76AD6A"/>
	</linearGradient>
	<circle class="st10" cx="290.5" cy="365" r="278"/>
	<g>
		<path class="st11" d="M435.8,482.6c-34.9,41.4-87.1,67.7-145.5,67.7c-105.1,0-190.2-85.2-190.2-190.2
			c0-105.1,85.2-190.2,190.2-190.2c105.1,0,190.2,85.2,190.2,190.2"/>
		<circle class="st1" cx="290.2" cy="365.3" r="27.9"/>
		<polyline class="st12" points="289.9,256.8 289.9,364.7 416.6,397.2 		"/>
		<polyline class="st12" points="436.3,333.6 483.9,371 517.4,331.2 		"/>
	</g>
</g>
</svg>
