<?xml version="1.0" encoding="UTF-8" standalone="no"?>
<!-- Generator: Adobe Illustrator 21.0.0, SVG Export Plug-In . SVG Version: 6.00 Build 0)  -->

<svg
   xmlns:dc="http://purl.org/dc/elements/1.1/"
   xmlns:cc="http://creativecommons.org/ns#"
   xmlns:rdf="http://www.w3.org/1999/02/22-rdf-syntax-ns#"
   xmlns:svg="http://www.w3.org/2000/svg"
   xmlns="http://www.w3.org/2000/svg"
   xmlns:xlink="http://www.w3.org/1999/xlink"
   xmlns:sodipodi="http://sodipodi.sourceforge.net/DTD/sodipodi-0.dtd"
   xmlns:inkscape="http://www.inkscape.org/namespaces/inkscape"
   version="1.1"
   id="Capa_1"
   x="0px"
   y="0px"
   viewBox="0 0 556.00001 555.99998"
   xml:space="preserve"
   sodipodi:docname="12.svg"
   width="556"
   height="556"
   inkscape:version="0.92.3 (2405546, 2018-03-11)"><metadata
   id="metadata189"><rdf:RDF><cc:Work
       rdf:about=""><dc:format>image/svg+xml</dc:format><dc:type
         rdf:resource="http://purl.org/dc/dcmitype/StillImage" /><dc:title></dc:title></cc:Work></rdf:RDF></metadata><defs
   id="defs187" /><sodipodi:namedview
   pagecolor="#ffffff"
   bordercolor="#666666"
   borderopacity="1"
   objecttolerance="10"
   gridtolerance="10"
   guidetolerance="10"
   inkscape:pageopacity="0"
   inkscape:pageshadow="2"
   inkscape:window-width="640"
   inkscape:window-height="480"
   id="namedview185"
   showgrid="false"
   fit-margin-top="0"
   fit-margin-left="0"
   fit-margin-right="0"
   fit-margin-bottom="0"
   inkscape:zoom="0.14015916"
   inkscape:cx="-123.87633"
   inkscape:cy="35.829033"
   inkscape:window-x="0"
   inkscape:window-y="0"
   inkscape:window-maximized="0"
   inkscape:current-layer="Capa_1" />
<style
   type="text/css"
   id="style2">
	.st0{fill:#009045;}
	.st1{fill:#FFFFFF;}
	.st2{clip-path:url(#SVGID_2_);}
	.st3{fill:url(#SVGID_3_);}
	.st4{fill:#BFC8E3;}
	.st5{fill:#CED2E9;}
	.st6{fill:url(#SVGID_4_);}
	.st7{fill:#727176;}
	.st8{fill:url(#SVGID_5_);}
	.st9{fill:none;stroke:#FFFFFF;stroke-width:5;stroke-miterlimit:10;}
	.st10{fill:url(#SVGID_6_);}
	.st11{fill:#E7C43A;}
	.st12{fill:#E1B038;}
	.st13{fill:#EED360;}
	.st14{fill:#87868A;}
</style>
<path
   class="st0"
   d="m 1820.3,-156.4 8.4,6.6 -1.8,2.4 c 0,0 -5.1,-2.4 -5.1,-2.7 -0.1,-0.2 -3.4,-1.9 -3.4,-2.1 -0.1,-0.2 -2.1,-0.4 -1.8,-0.9 0.2,-0.4 3.7,-3.3 3.7,-3.3 z"
   id="path4"
   inkscape:connector-curvature="0"
   style="fill:#009045" />
<path
   class="st1"
   d="M 1618.8,-23.8"
   id="path6"
   inkscape:connector-curvature="0"
   style="fill:#ffffff" />
<g
   id="g20"
   transform="translate(-23.299988,-14.5)">
	<defs
   id="defs9">
		
			<rect
   id="SVGID_1_"
   x="1503"
   y="76.599998"
   transform="rotate(-180,1527.3963,132.0189)"
   width="48.700001"
   height="110.8" />
	</defs>
	<clipPath
   id="SVGID_2_">
		<use
   xlink:href="#SVGID_1_"
   style="overflow:visible"
   id="use11"
   x="0"
   y="0"
   width="100%"
   height="100%" />
	</clipPath>
	<g
   class="st2"
   clip-path="url(#SVGID_2_)"
   id="g18">
		<rect
   x="1511.5"
   y="75"
   style="fill:none"
   width="133.2"
   height="146.89999"
   id="rect14" />
		
			<text
   transform="matrix(0.9793,0,0,1,1511.5199,178.2813)"
   style="font-size:135.56860352px;font-family:Roboto-Condensed;fill:#c7dfdb;stroke:#c7dfdb;stroke-miterlimit:10"
   id="text16">H</text>

	</g>
</g>
<g
   id="g61"
   transform="translate(-23.299988,-14.5)">
	<linearGradient
   id="SVGID_3_"
   gradientUnits="userSpaceOnUse"
   x1="-896.742"
   y1="-587.17047"
   x2="-255.4939"
   y2="115.7359">
		<stop
   offset="0"
   style="stop-color:#17988D"
   id="stop22" />
		<stop
   offset="4.409693e-02"
   style="stop-color:#219883"
   id="stop24" />
		<stop
   offset="0.1385"
   style="stop-color:#2C9872"
   id="stop26" />
		<stop
   offset="0.2428"
   style="stop-color:#339863"
   id="stop28" />
		<stop
   offset="0.3591"
   style="stop-color:#389856"
   id="stop30" />
		<stop
   offset="0.4938"
   style="stop-color:#3C984B"
   id="stop32" />
		<stop
   offset="0.6637"
   style="stop-color:#3D9843"
   id="stop34" />
		<stop
   offset="0.9831"
   style="stop-color:#3E9841"
   id="stop36" />
		<stop
   offset="0.9916"
   style="stop-color:#419943"
   id="stop38" />
		<stop
   offset="0.9947"
   style="stop-color:#4A9C48"
   id="stop40" />
		<stop
   offset="0.9969"
   style="stop-color:#57A052"
   id="stop42" />
		<stop
   offset="0.9987"
   style="stop-color:#67A65E"
   id="stop44" />
		<stop
   offset="1"
   style="stop-color:#76AD6A"
   id="stop46" />
	</linearGradient>
	<circle
   class="st3"
   cx="-550.59998"
   cy="-207.8"
   r="297.60001"
   id="circle49"
   style="fill:url(#SVGID_3_)" />
	<g
   id="g59">
		<g
   id="g55">
			<path
   class="st1"
   d="M -506.7,-147.2 V -383 c 0,-24.2 -19.7,-43.9 -43.9,-43.9 v 0 c -24.2,0 -43.9,19.7 -43.9,43.9 v 235.8 c -27.2,16.4 -44.6,47.4 -41.1,82.2 4,39.4 35.9,71.5 75.2,75.9 51.5,5.7 95.2,-34.5 95.2,-84.9 0,-31.1 -16.7,-58.3 -41.5,-73.2 z"
   id="path51"
   inkscape:connector-curvature="0"
   style="fill:#ffffff" />
			<path
   class="st4"
   d="m -550.6,-12.6 c -2.3,0 -4.7,-0.1 -7.1,-0.4 -27.9,-3.1 -51.1,-26.5 -54,-54.4 -2.5,-24 8.9,-46.7 29.5,-59.1 l 11.7,-7 v -114.3 c 0,-10.9 8.9,-19.9 19.9,-19.9 10.9,0 19.9,8.9 19.9,19.9 v 114.3 l 11.7,7 c 18.7,11.2 29.9,30.9 29.9,52.6 0,16.4 -6.4,31.8 -18,43.4 -11.7,11.5 -27.1,17.9 -43.5,17.9 0,0 0,0 0,0 z"
   id="path53"
   inkscape:connector-curvature="0"
   style="fill:#bfc8e3" />
		</g>
		<path
   class="st5"
   d="m -430.3,-386.2 c -20.3,0 -36.9,16.5 -36.9,36.9 0,20.3 16.5,36.9 36.9,36.9 20.3,0 36.9,-16.5 36.9,-36.9 -0.1,-20.4 -16.6,-36.9 -36.9,-36.9 z m 0,53.4 c -9.1,0 -16.6,-7.4 -16.6,-16.6 0,-9.1 7.4,-16.6 16.6,-16.6 9.1,0 16.6,7.4 16.6,16.6 -0.1,9.2 -7.5,16.6 -16.6,16.6 z"
   id="path57"
   inkscape:connector-curvature="0"
   style="fill:#ced2e9" />
	</g>
</g>
<linearGradient
   id="SVGID_4_"
   gradientUnits="userSpaceOnUse"
   x1="410.6564"
   y1="-183.0598"
   x2="752.22668"
   y2="-183.0598">
	<stop
   offset="0"
   style="stop-color:#17988D"
   id="stop63" />
	<stop
   offset="4.409693e-02"
   style="stop-color:#219883"
   id="stop65" />
	<stop
   offset="0.1385"
   style="stop-color:#2C9872"
   id="stop67" />
	<stop
   offset="0.2428"
   style="stop-color:#339863"
   id="stop69" />
	<stop
   offset="0.3591"
   style="stop-color:#389856"
   id="stop71" />
	<stop
   offset="0.4938"
   style="stop-color:#3C984B"
   id="stop73" />
	<stop
   offset="0.6637"
   style="stop-color:#3D9843"
   id="stop75" />
	<stop
   offset="0.9831"
   style="stop-color:#3E9841"
   id="stop77" />
	<stop
   offset="0.9916"
   style="stop-color:#419943"
   id="stop79" />
	<stop
   offset="0.9947"
   style="stop-color:#4A9C48"
   id="stop81" />
	<stop
   offset="0.9969"
   style="stop-color:#57A052"
   id="stop83" />
	<stop
   offset="0.9987"
   style="stop-color:#67A65E"
   id="stop85" />
	<stop
   offset="1"
   style="stop-color:#76AD6A"
   id="stop87" />
</linearGradient>
<polygon
   class="st6"
   points="416.6,-188 615,-318.3 752.2,-218.9 748.7,-215.4 613.4,-296.6 439.9,-172.9 442.5,-47.8 410.7,-47.8 "
   id="polygon90"
   style="fill:url(#SVGID_4_)"
   transform="translate(-23.299988,-14.5)" />
<g
   id="g94"
   transform="translate(-23.299988,-14.5)">
	<path
   class="st7"
   d="m 867.3,473.4 h -0.6 v -3.4 -1.8 c 0,-0.7 -0.5,-1.2 -1.2,-1.2 -0.7,0 -1.2,0.5 -1.2,1.2 v 1.8 3.4 h -4.9 v -3.4 -1.8 c 0,-0.7 -0.5,-1.2 -1.2,-1.2 -0.7,0 -1.2,0.5 -1.2,1.2 v 1.8 3.4 h -0.6 c -0.5,0 -1,0.4 -1,1 v 1.6 c 0,0.5 0.4,1 1,1 v 4.7 c 0,0.5 0.3,1.2 0.7,1.6 l 2.6,2.3 1.1,4.7 c 0,3.1 2.5,5.6 5.6,5.6 V 494 c -2,0 -3.7,-1.6 -3.7,-3.7 l 1.1,-4.7 2.6,-2.3 c 0.4,-0.4 0.7,-1.1 0.7,-1.6 V 477 c 0.5,0 1,-0.4 1,-1 v -1.6 c 0.2,-0.6 -0.3,-1 -0.8,-1 z m -2.5,-2.9 h 1.4 v 2.9 h -1.4 z m -7.3,0 h 1.4 v 2.9 h -1.4 z"
   id="path92"
   inkscape:connector-curvature="0"
   style="fill:#727176" />
</g>
<linearGradient
   id="SVGID_5_"
   gradientUnits="userSpaceOnUse"
   x1="1839.8008"
   y1="-513.237"
   x2="2435.0808"
   y2="-513.237"
   gradientTransform="translate(-23.299988,-14.5)">
	<stop
   offset="0"
   style="stop-color:#17988D"
   id="stop96" />
	<stop
   offset="4.409693e-02"
   style="stop-color:#219883"
   id="stop98" />
	<stop
   offset="0.1385"
   style="stop-color:#2C9872"
   id="stop100" />
	<stop
   offset="0.2428"
   style="stop-color:#339863"
   id="stop102" />
	<stop
   offset="0.3591"
   style="stop-color:#389856"
   id="stop104" />
	<stop
   offset="0.4938"
   style="stop-color:#3C984B"
   id="stop106" />
	<stop
   offset="0.6637"
   style="stop-color:#3D9843"
   id="stop108" />
	<stop
   offset="0.9831"
   style="stop-color:#3E9841"
   id="stop110" />
	<stop
   offset="0.9916"
   style="stop-color:#419943"
   id="stop112" />
	<stop
   offset="0.9947"
   style="stop-color:#4A9C48"
   id="stop114" />
	<stop
   offset="0.9969"
   style="stop-color:#57A052"
   id="stop116" />
	<stop
   offset="0.9987"
   style="stop-color:#67A65E"
   id="stop118" />
	<stop
   offset="1"
   style="stop-color:#76AD6A"
   id="stop120" />
</linearGradient>
<rect
   x="1816.5"
   y="-614.09998"
   class="st8"
   width="595.29999"
   height="172.60001"
   id="rect123"
   style="fill:url(#SVGID_5_)" />
<path
   class="st9"
   d="M -299.59999,364.5"
   id="path125"
   inkscape:connector-curvature="0"
   style="fill:none;stroke:#ffffff;stroke-width:5;stroke-miterlimit:10" />
<g
   id="g156"
   transform="translate(-23.299988,-14.5)">
	<linearGradient
   id="SVGID_6_"
   gradientUnits="userSpaceOnUse"
   x1="23.283501"
   y1="292.5"
   x2="579.26788"
   y2="292.5">
		<stop
   offset="0"
   style="stop-color:#17988D"
   id="stop127" />
		<stop
   offset="4.409693e-02"
   style="stop-color:#219883"
   id="stop129" />
		<stop
   offset="0.1385"
   style="stop-color:#2C9872"
   id="stop131" />
		<stop
   offset="0.2428"
   style="stop-color:#339863"
   id="stop133" />
		<stop
   offset="0.3591"
   style="stop-color:#389856"
   id="stop135" />
		<stop
   offset="0.4938"
   style="stop-color:#3C984B"
   id="stop137" />
		<stop
   offset="0.6637"
   style="stop-color:#3D9843"
   id="stop139" />
		<stop
   offset="0.9831"
   style="stop-color:#3E9841"
   id="stop141" />
		<stop
   offset="0.9916"
   style="stop-color:#419943"
   id="stop143" />
		<stop
   offset="0.9947"
   style="stop-color:#4A9C48"
   id="stop145" />
		<stop
   offset="0.9969"
   style="stop-color:#57A052"
   id="stop147" />
		<stop
   offset="0.9987"
   style="stop-color:#67A65E"
   id="stop149" />
		<stop
   offset="1"
   style="stop-color:#76AD6A"
   id="stop151" />
	</linearGradient>
	<circle
   class="st10"
   cx="301.29999"
   cy="292.5"
   r="278"
   id="circle154"
   style="fill:url(#SVGID_6_)" />
</g>
<rect
   x="1037.8"
   y="288.89999"
   style="fill:none"
   width="564"
   height="108"
   id="rect158" />
<text
   transform="scale(0.98959588,1.0105135)"
   style="font-size:134.15812683px;font-family:Roboto-Condensed;stroke-width:0.98959589"
   id="text160"
   x="1048.6848"
   y="388.10971">Consumo</text>

<g
   id="g174"
   transform="translate(-23.299988,-14.5)">
	<g
   id="g172">
		<g
   id="XMLID_2_">
			<g
   id="XMLID_3_">
				<g
   id="XMLID_4_">
					<path
   id="XMLID_10_"
   class="st11"
   d="m 1131.3,-297.6 c -0.1,7.9 -6.6,14.3 -14.5,14.2 l -352.1,-3.7 c -7.9,-0.1 -14.3,-6.6 -14.2,-14.5 l 2.4,-229 c 0.1,-7.9 6.6,-14.3 14.5,-14.2 l 352.1,3.7 c 7.9,0.1 14.3,6.6 14.2,14.5 z"
   inkscape:connector-curvature="0"
   style="fill:#e7c43a" />
				</g>
			</g>
		</g>
		<path
   class="st12"
   d="m 1131.3,-297.6 1.5,-140.3 c -117,97 -284.7,132.2 -379.6,144.7 2.6,3.6 6.8,6 11.5,6.1 l 352.1,3.7 c 7.9,0.1 14.4,-6.3 14.5,-14.2 z"
   id="path166"
   inkscape:connector-curvature="0"
   style="fill:#e1b038" />
		<path
   class="st13"
   d="m 764.7,-517.6 -0.5,49.3 c 1.5,-20.9 12.1,-66.4 75,-65.7 l -57.2,-0.6 c -9.3,-0.2 -17.2,7.5 -17.3,17 z"
   id="path168"
   inkscape:connector-curvature="0"
   style="fill:#eed360" />
		<path
   class="st14"
   d="m 912.8,-356.7 c 0,0 42.8,-11.6 48.2,-70.7 l 9.3,71.3 z"
   id="path170"
   inkscape:connector-curvature="0"
   style="fill:#87868a" />
	</g>
</g>
<g
   id="g182"
   transform="translate(-23.299988,-14.5)">
	<rect
   x="134.7"
   y="248.5"
   class="st1"
   width="333.20001"
   height="215.89999"
   id="rect176"
   style="fill:#ffffff" />
	<path
   class="st14"
   d="m 330.3,368.1 c 0.2,-15.9 -12.6,-28.9 -28.5,-29.1 -15.9,-0.2 -28.9,12.6 -29.1,28.5 -0.1,9.5 4.4,17.9 11.4,23.2 l -9.8,65 52.5,0.5 -8.5,-65.2 c 7.2,-5.1 11.9,-13.4 12,-22.9 z"
   id="path178"
   inkscape:connector-curvature="0"
   style="fill:#87868a" />
	<g
   id="XMLID_19_">
		<path
   id="XMLID_20_"
   class="st1"
   d="m 467.1,259.3 -45.9,-0.5 0.7,-65.4 c 0.3,-28.6 -53.4,-52.4 -119.7,-53 -66.3,-0.7 -120.5,22 -120.8,50.5 l -0.7,65.4 -45.9,-0.5 0.7,-65.4 c 0.4,-39.5 75.3,-70.8 166.9,-69.8 91.6,1 165.9,33.8 165.4,73.3 z"
   inkscape:connector-curvature="0"
   style="fill:#ffffff" />
	</g>
</g>
</svg>