<?xml version="1.0" encoding="utf-8"?>
<!-- Generator: Adobe Illustrator 21.0.0, SVG Export Plug-In . SVG Version: 6.00 Build 0)  -->
<svg version="1.1" id="Capa_1" xmlns="http://www.w3.org/2000/svg" xmlns:xlink="http://www.w3.org/1999/xlink" x="0px" y="0px"
	 viewBox="0 0 595.3 841.9" style="enable-background:new 0 0 595.3 841.9;" xml:space="preserve">
<style type="text/css">
	.st0{fill:#009045;}
	.st1{fill:#FFFFFF;}
	.st2{fill:url(#SVGID_1_);}
	.st3{fill:#444242;}
	.st4{font-family:'Roboto-Condensed';}
	.st5{font-size:113.457px;}
	.st6{font-size:112.0142px;}
	.st7{font-size:109.7651px;}
	.st8{fill:#C7DFDB;}
	.st9{font-size:109.328px;}
	.st10{fill:none;}
	.st11{fill:#C7DFDB;stroke:#C7DFDB;stroke-miterlimit:10;}
	.st12{clip-path:url(#SVGID_3_);}
	.st13{clip-path:url(#SVGID_5_);}
	.st14{font-size:112.0318px;}
	.st15{clip-path:url(#SVGID_7_);}
	.st16{clip-path:url(#SVGID_9_);}
	.st17{fill:#C7DFDB;stroke:#C7DFDB;stroke-width:0.15;stroke-miterlimit:10;}
	.st18{fill:none;stroke:#727176;stroke-miterlimit:10;}
	.st19{fill:#727176;}
	.st20{fill:none;stroke:#727176;stroke-width:0.75;stroke-miterlimit:10;}
	.st21{opacity:0.6;fill:none;stroke:#727176;stroke-width:0.75;stroke-miterlimit:10;}
	.st22{fill:url(#SVGID_10_);}
	.st23{fill:url(#SVGID_11_);}
	.st24{fill:url(#SVGID_12_);}
	.st25{fill:#BFC8E3;}
	.st26{fill:#CED2E9;}
	.st27{fill:url(#SVGID_13_);}
	.st28{fill:url(#SVGID_14_);}
</style>
<path class="st0" d="M1843.6-141.9l8.4,6.6l-1.8,2.4c0,0-5.1-2.4-5.1-2.7c-0.1-0.2-3.4-1.9-3.4-2.1c-0.1-0.2-2.1-0.4-1.8-0.9
	C1840.1-139,1843.6-141.9,1843.6-141.9z"/>
<path class="st1" d="M1642.1-9.3"/>
<path class="st0" d="M403,619c0,0,41.7,37.8,93.9,34.2c0,0-41.7-2.2-72.7-23.7c0,0,22.3-22.4,41.8-14.7c19.5,7.7,47,41.9,75.4,34.6
	c0,0-83.8,59.3-121-13.8c0,0-16.2-9.1-21.6-14.1C398.7,621.5,398.7,617,403,619z"/>
<linearGradient id="SVGID_1_" gradientUnits="userSpaceOnUse" x1="130.6763" y1="658.8309" x2="417.1393" y2="658.8309">
	<stop  offset="0" style="stop-color:#17988D"/>
	<stop  offset="4.409693e-02" style="stop-color:#219883"/>
	<stop  offset="0.1385" style="stop-color:#2C9872"/>
	<stop  offset="0.2428" style="stop-color:#339863"/>
	<stop  offset="0.3591" style="stop-color:#389856"/>
	<stop  offset="0.4938" style="stop-color:#3C984B"/>
	<stop  offset="0.6637" style="stop-color:#3D9843"/>
	<stop  offset="0.9831" style="stop-color:#3E9841"/>
	<stop  offset="0.9916" style="stop-color:#419943"/>
	<stop  offset="0.9947" style="stop-color:#4A9C48"/>
	<stop  offset="0.9969" style="stop-color:#57A052"/>
	<stop  offset="0.9987" style="stop-color:#67A65E"/>
	<stop  offset="1" style="stop-color:#76AD6A"/>
</linearGradient>
<polyline class="st2" points="130.7,770.6 174.2,770.6 159.8,667.2 303.2,565 414,632 417.1,629.2 304.6,547 140.6,654.8 130.7,767 
	"/>
<g>
	<text transform="matrix(0.9883 0 0 1 431.0928 771.9414)" class="st3 st4 st5">E</text>
	<text transform="matrix(1.001 0 0 1 314.7197 770.6113)" class="st3 st4 st6">U</text>
	<text transform="matrix(0.996 0 0 1 378.0586 770.2559)" class="st3 st4 st7">S</text>
	<text transform="matrix(1 0 0 1 249.8408 772.0645)" class="st8 st4 st9">.</text>
	<rect x="264.5" y="686.6" class="st10" width="56.5" height="107.3"/>
	<text transform="matrix(1 0 0 1 264.5 769.8418)" class="st11 st4 st9">0   </text>
</g>
<g>
	<defs>
		
			<rect id="SVGID_2_" x="1503" y="76.6" transform="matrix(-1 -1.224647e-16 1.224647e-16 -1 3054.7925 264.0378)" width="48.7" height="110.8"/>
	</defs>
	<clipPath id="SVGID_3_">
		<use xlink:href="#SVGID_2_"  style="overflow:visible;"/>
	</clipPath>
	<g class="st12">
		<rect x="1511.5" y="75" class="st10" width="133.2" height="146.9"/>
		<text transform="matrix(0.9793 0 0 1 1511.5199 178.2813)" class="st11 st4" style="font-size:135.5686px;">H</text>
	</g>
</g>
<g>
	<g>
		<defs>
			<rect id="SVGID_4_" x="225.2" y="688.3" width="38.2" height="91.5"/>
		</defs>
		<clipPath id="SVGID_5_">
			<use xlink:href="#SVGID_4_"  style="overflow:visible;"/>
		</clipPath>
		<g class="st13">
			<rect x="192" y="686.9" class="st10" width="435.2" height="121.4"/>
			<text transform="matrix(0.9793 0 0 1 191.9531 772.249)" class="st11 st4 st14">H</text>
		</g>
	</g>
	<g>
		<defs>
			<rect id="SVGID_6_" x="185" y="686.6" width="52" height="50.8"/>
		</defs>
		<clipPath id="SVGID_7_">
			<use xlink:href="#SVGID_6_"  style="overflow:visible;"/>
		</clipPath>
		<g class="st15">
			<defs>
				
					<rect id="SVGID_8_" x="185" y="688.3" transform="matrix(-1 -1.224647e-16 1.224647e-16 -1 410.1985 1468.1763)" width="40.3" height="91.5"/>
			</defs>
			<clipPath id="SVGID_9_">
				<use xlink:href="#SVGID_8_"  style="overflow:visible;"/>
			</clipPath>
			<g class="st16">
				<rect x="192" y="687" class="st10" width="110.1" height="121.4"/>
				<text transform="matrix(0.9793 0 0 1 191.9795 772.3193)" class="st11 st4 st14">H</text>
			</g>
		</g>
	</g>
	<rect x="199" y="742.9" class="st3" width="11.4" height="29.6"/>
	<rect x="199.1" y="727.7" class="st17" width="43.2" height="10.2"/>
</g>
<g>
	<rect x="776.4" y="25.1" class="st18" width="24" height="38.5"/>
	<line class="st18" x1="776.4" y1="49.7" x2="800.4" y2="49.7"/>
	<line class="st18" x1="788.4" y1="25.1" x2="788.4" y2="49.7"/>
	<line class="st18" x1="790.9" y1="33.8" x2="790.9" y2="40.8"/>
	<line class="st18" x1="786.1" y1="33.8" x2="786.1" y2="40.8"/>
	<line class="st18" x1="783.4" y1="52.7" x2="793.2" y2="52.7"/>
	<polyline class="st18" points="800.4,63.6 783.4,63.6 752.2,63.6 752.2,46.2 752.2,42.8 754.2,41.5 774.5,41.5 775.6,42.8 
		776.4,43.7 	"/>
	<line class="st18" x1="752.2" y1="46.2" x2="776.3" y2="46.2"/>
	<circle class="st19" cx="756.7" cy="44" r="0.9"/>
	<circle class="st19" cx="771.8" cy="44" r="0.9"/>
	<line class="st18" x1="755.8" y1="48.8" x2="772.7" y2="48.8"/>
	<polygon class="st18" points="755.8,61.4 772.7,61.4 772.7,52.5 771.8,51.7 756.7,51.7 755.8,52.7 	"/>
	<line class="st18" x1="773.9" y1="30.6" x2="755" y2="30.6"/>
	<polyline class="st18" points="760,18.2 760,26.6 767.7,26.6 767.7,18.2 	"/>
	<polyline class="st18" points="760,26.9 755,30.5 755,33.1 773.5,33.1 	"/>
	<polyline class="st18" points="755.5,33.1 773.9,33.1 773.9,30.5 767.7,26.6 	"/>
	<line class="st18" x1="760.7" y1="26.6" x2="755" y2="30.5"/>
	<circle class="st19" cx="769" cy="31.9" r="0.5"/>
	<circle class="st19" cx="771.2" cy="31.9" r="0.5"/>
</g>
<g>
	<rect x="752.2" y="104.7" class="st18" width="21.5" height="12.5"/>
	<rect x="776.7" y="104.7" class="st18" width="23.1" height="35.9"/>
	<rect x="752.2" y="128.3" class="st18" width="22.4" height="12.3"/>
	<rect x="778.4" y="121.9" class="st19" width="1.5" height="1.5"/>
	<rect x="760.9" y="133.8" class="st19" width="0.9" height="0.9"/>
	<rect x="764.7" y="133.8" class="st19" width="0.9" height="0.9"/>
	<line class="st18" x1="762.8" y1="128.7" x2="762.8" y2="140.6"/>
	<line class="st18" x1="763.9" y1="128.8" x2="763.9" y2="140.7"/>
	<line class="st18" x1="755.1" y1="123.4" x2="770.8" y2="123.4"/>
	<path class="st18" d="M755.7,123.8c0,0-0.1,4.2,2,4.6"/>
	<path class="st18" d="M770.2,123.8c0,0,0.1,4.2-2,4.6"/>
	<line class="st18" x1="763.2" y1="119.2" x2="763.2" y2="123.2"/>
	<path class="st18" d="M762.7,122.4"/>
	<path class="st18" d="M762.7,122.3"/>
	<polyline class="st20" points="761.4,121.3 761.4,122.4 762.9,122.4 	"/>
	<polyline class="st20" points="765.1,121.3 765.1,122.4 763.5,122.4 	"/>
	<polygon class="st20" points="783.9,101.6 792.8,101.6 790.5,98.3 787.3,98.3 786.9,98.3 	"/>
	<line class="st20" x1="787.3" y1="95.3" x2="787.3" y2="98.3"/>
	<line class="st20" x1="789.7" y1="95.3" x2="789.8" y2="98.3"/>
	<line class="st21" x1="783.9" y1="107.6" x2="783.9" y2="137.6"/>
	<line class="st21" x1="786.7" y1="107.6" x2="786.7" y2="132.7"/>
	<line class="st21" x1="789.8" y1="108.1" x2="789.8" y2="137.6"/>
	<polyline class="st21" points="793.5,108.1 793.5,132.7 793.5,136 	"/>
</g>
<g>
	<rect x="757.7" y="179.5" class="st18" width="38.4" height="21.3"/>
	<rect x="761.8" y="191.2" class="st18" width="11.3" height="7.7"/>
	<rect x="778.6" y="191.2" class="st18" width="12" height="7.7"/>
	<circle class="st19" cx="766.3" cy="186.1" r="1.2"/>
	<circle class="st19" cx="776.4" cy="186.1" r="1.2"/>
	<circle class="st19" cx="786.3" cy="186.1" r="1.2"/>
	<rect x="754.6" y="200.8" class="st18" width="44.9" height="14.1"/>
	<rect x="756.2" y="215.3" class="st18" width="0.6" height="3"/>
	<rect x="797.2" y="215" class="st18" width="0.6" height="3"/>
</g>
<g>
	<polygon class="st18" points="922.8,39.4 888.5,39.4 888.5,33.9 888.5,24.6 922.8,24.6 	"/>
	<polyline class="st18" points="888.5,32.9 884.5,32.9 884.5,44.4 888.5,44.4 924.8,44.4 	"/>
	<polyline class="st18" points="922.8,32.9 926.8,32.9 926.8,44.4 922.8,44.4 	"/>
	<polyline class="st18" points="888.5,35.6 904.6,35.6 922.8,35.6 	"/>
	<line class="st18" x1="904.6" y1="39.2" x2="904.6" y2="35.6"/>
	<path class="st19" d="M896.2,30.9L896.2,30.9c-0.9,0-1.6-0.7-1.6-1.6v0c0-0.9,0.7-1.6,1.6-1.6l0,0c0.9,0,1.6,0.7,1.6,1.6v0
		C897.7,30.2,897,30.9,896.2,30.9z"/>
	<path class="st19" d="M915.1,30.9L915.1,30.9c-0.9,0-1.6-0.7-1.6-1.6v0c0-0.9,0.7-1.6,1.6-1.6l0,0c0.9,0,1.6,0.7,1.6,1.6v0
		C916.7,30.2,916,30.9,915.1,30.9z"/>
	<rect x="888.5" y="44.6" class="st19" width="1" height="2.1"/>
	<rect x="922.3" y="44.6" class="st19" width="1" height="2.1"/>
	<polyline class="st18" points="933.8,46.8 937.1,46.8 940.3,46.8 	"/>
	<line class="st18" x1="937.1" y1="16.6" x2="937.1" y2="46.8"/>
	<g>
		<polyline class="st18" points="932.2,16.4 945.4,16.4 943.6,7.1 935.6,7.1 		"/>
		<polyline class="st18" points="941.9,16.4 928.7,16.4 930.6,7.1 938.6,7.1 		"/>
	</g>
	<line class="st18" x1="932.2" y1="16.4" x2="932.2" y2="21.7"/>
	<circle class="st19" cx="932.2" cy="22.5" r="1.2"/>
</g>
<g>
	<linearGradient id="SVGID_10_" gradientUnits="userSpaceOnUse" x1="884.2386" y1="142.3886" x2="925.0512" y2="187.1255">
		<stop  offset="0" style="stop-color:#17988D"/>
		<stop  offset="4.409693e-02" style="stop-color:#219883"/>
		<stop  offset="0.1385" style="stop-color:#2C9872"/>
		<stop  offset="0.2428" style="stop-color:#339863"/>
		<stop  offset="0.3591" style="stop-color:#389856"/>
		<stop  offset="0.4938" style="stop-color:#3C984B"/>
		<stop  offset="0.6637" style="stop-color:#3D9843"/>
		<stop  offset="0.9831" style="stop-color:#3E9841"/>
		<stop  offset="0.9916" style="stop-color:#419943"/>
		<stop  offset="0.9947" style="stop-color:#4A9C48"/>
		<stop  offset="0.9969" style="stop-color:#57A052"/>
		<stop  offset="0.9987" style="stop-color:#67A65E"/>
		<stop  offset="1" style="stop-color:#76AD6A"/>
	</linearGradient>
	<circle class="st22" cx="906.3" cy="166.5" r="18.9"/>
	<g>
		<path class="st1" d="M898.6,162.6c-1.1,0-2-0.9-2-2c0-1.1,0.9-2,2-2c0,0,0,0,0,0V155h-0.9c-0.2,0-0.4,0.2-0.4,0.4v1.2
			c-0.3,0.1-0.5,0.2-0.7,0.3l-0.9-0.9c-0.1-0.1-0.4-0.1-0.5,0l-1.2,1.2c-0.1,0.1-0.1,0.4,0,0.5l0.9,0.9c-0.1,0.2-0.2,0.5-0.3,0.7
			h-1.2c-0.2,0-0.4,0.2-0.4,0.4v1.8c0,0.2,0.2,0.4,0.4,0.4h1.2c0.1,0.3,0.2,0.5,0.3,0.7l-0.9,0.9c-0.1,0.1-0.1,0.4,0,0.5l1.2,1.2
			c0.1,0.1,0.4,0.1,0.5,0l0.9-0.9c0.2,0.1,0.5,0.2,0.7,0.3v1.2c0,0.2,0.2,0.4,0.4,0.4h0.9L898.6,162.6
			C898.6,162.6,898.6,162.6,898.6,162.6z"/>
		<path class="st1" d="M903.9,159.4h-1.2c-0.1-0.3-0.2-0.5-0.3-0.7l0.9-0.9c0.1-0.1,0.1-0.4,0-0.5L902,156c-0.1-0.1-0.4-0.1-0.5,0
			l-0.9,0.9c-0.2-0.1-0.5-0.2-0.7-0.3v-1.2c0-0.2-0.2-0.4-0.4-0.4h-0.9v3.7c1.1,0,2,0.9,2,2c0,1.1-0.9,2-2,2v3.7h0.9
			c0.2,0,0.4-0.2,0.4-0.4v-1.2c0.3-0.1,0.5-0.2,0.7-0.3l0.9,0.9c0.1,0.1,0.4,0.1,0.5,0l1.2-1.2c0.1-0.1,0.1-0.4,0-0.5l-0.9-0.9
			c0.1-0.2,0.2-0.5,0.3-0.7h1.2c0.2,0,0.4-0.2,0.4-0.4v-1.8C904.3,159.6,904.1,159.4,903.9,159.4z"/>
	</g>
	<g>
		<path class="st1" d="M911.5,172.4c-1.6-0.2-2.8-1.8-2.6-3.4c0.2-1.6,1.8-2.8,3.4-2.6h0l0.8-5.7l-1.3-0.2c-0.3,0-0.6,0.2-0.7,0.5
			l-0.3,1.9c-0.4,0.1-0.8,0.2-1.2,0.3l-1.1-1.5c-0.2-0.3-0.6-0.3-0.8-0.1l-2.2,1.6c-0.3,0.2-0.3,0.6-0.1,0.8l1.1,1.5
			c-0.2,0.3-0.5,0.7-0.6,1.1l-1.9-0.3c-0.3,0-0.6,0.2-0.7,0.5l-0.4,2.7c0,0.3,0.2,0.6,0.5,0.7l1.9,0.3c0.1,0.4,0.2,0.8,0.3,1.2
			l-1.5,1.1c-0.3,0.2-0.3,0.6-0.1,0.8l1.6,2.2c0.2,0.3,0.6,0.3,0.8,0.1l1.5-1.1c0.3,0.2,0.7,0.5,1.1,0.6l-0.3,1.9
			c0,0.3,0.2,0.6,0.5,0.7l1.3,0.2L911.5,172.4L911.5,172.4z"/>
		<path class="st1" d="M920.4,168.6l-1.9-0.3c-0.1-0.4-0.2-0.8-0.3-1.2l1.5-1.1c0.3-0.2,0.3-0.6,0.1-0.8l-1.6-2.2
			c-0.2-0.3-0.6-0.3-0.8-0.1l-1.5,1.1c-0.3-0.2-0.7-0.5-1.1-0.6l0.3-1.9c0-0.3-0.2-0.6-0.5-0.7l-1.3-0.2l-0.8,5.7
			c1.6,0.2,2.8,1.8,2.6,3.4c-0.2,1.6-1.8,2.8-3.4,2.6l-0.8,5.7l1.3,0.2c0.3,0,0.6-0.2,0.7-0.5l0.3-1.9c0.4-0.1,0.8-0.2,1.2-0.3
			l1.1,1.5c0.2,0.3,0.6,0.3,0.8,0.1l2.2-1.6c0.3-0.2,0.3-0.6,0.1-0.8l-1.1-1.5c0.2-0.3,0.5-0.7,0.6-1.1l1.9,0.3
			c0.3,0,0.6-0.2,0.7-0.5l0.4-2.7C920.9,169,920.7,168.7,920.4,168.6z"/>
	</g>
</g>
<g>
	<linearGradient id="SVGID_11_" gradientUnits="userSpaceOnUse" x1="898.2525" y1="178.7907" x2="939.0651" y2="223.5275">
		<stop  offset="0" style="stop-color:#17988D"/>
		<stop  offset="4.409693e-02" style="stop-color:#219883"/>
		<stop  offset="0.1385" style="stop-color:#2C9872"/>
		<stop  offset="0.2428" style="stop-color:#339863"/>
		<stop  offset="0.3591" style="stop-color:#389856"/>
		<stop  offset="0.4938" style="stop-color:#3C984B"/>
		<stop  offset="0.6637" style="stop-color:#3D9843"/>
		<stop  offset="0.9831" style="stop-color:#3E9841"/>
		<stop  offset="0.9916" style="stop-color:#419943"/>
		<stop  offset="0.9947" style="stop-color:#4A9C48"/>
		<stop  offset="0.9969" style="stop-color:#57A052"/>
		<stop  offset="0.9987" style="stop-color:#67A65E"/>
		<stop  offset="1" style="stop-color:#76AD6A"/>
	</linearGradient>
	<circle class="st23" cx="920.3" cy="202.9" r="18.9"/>
	<g>
		<path class="st1" d="M920.3,194.1L920.3,194.1c-0.3,0-0.5-0.2-0.5-0.5v-2c0-0.3,0.2-0.5,0.5-0.5l0,0c0.3,0,0.5,0.2,0.5,0.5v2
			C920.8,193.9,920.6,194.1,920.3,194.1z"/>
		<path class="st1" d="M914.3,196.6L914.3,196.6c-0.2,0.2-0.5,0.2-0.8,0l-1.4-1.4c-0.2-0.2-0.2-0.5,0-0.8l0,0c0.2-0.2,0.5-0.2,0.8,0
			l1.4,1.4C914.6,196,914.6,196.3,914.3,196.6z"/>
		<path class="st1" d="M911.9,202.5L911.9,202.5c0,0.3-0.2,0.5-0.5,0.5h-2c-0.3,0-0.5-0.2-0.5-0.5l0,0c0-0.3,0.2-0.5,0.5-0.5h2
			C911.6,202,911.9,202.2,911.9,202.5z"/>
		<path class="st1" d="M914.3,208.4L914.3,208.4c0.2,0.2,0.2,0.5,0,0.8l-1.4,1.4c-0.2,0.2-0.5,0.2-0.8,0l0,0c-0.2-0.2-0.2-0.5,0-0.8
			l1.4-1.4C913.8,208.2,914.1,208.2,914.3,208.4z"/>
		<path class="st1" d="M926.2,208.4L926.2,208.4c0.2-0.2,0.5-0.2,0.8,0l1.4,1.4c0.2,0.2,0.2,0.5,0,0.8l0,0c-0.2,0.2-0.5,0.2-0.8,0
			l-1.4-1.4C926,209,926,208.6,926.2,208.4z"/>
		<path class="st1" d="M928.7,202.5L928.7,202.5c0-0.3,0.2-0.5,0.5-0.5h2c0.3,0,0.5,0.2,0.5,0.5l0,0c0,0.3-0.2,0.5-0.5,0.5h-2
			C928.9,203,928.7,202.8,928.7,202.5z"/>
		<path class="st1" d="M926.2,196.6L926.2,196.6c-0.2-0.2-0.2-0.5,0-0.8l1.4-1.4c0.2-0.2,0.5-0.2,0.8,0l0,0c0.2,0.2,0.2,0.5,0,0.8
			l-1.4,1.4C926.8,196.8,926.4,196.8,926.2,196.6z"/>
		<g>
			<path class="st1" d="M913.6,202.5c0,3.7,3,6.7,6.7,6.7v-13.3C916.6,195.8,913.6,198.8,913.6,202.5z"/>
			<path class="st1" d="M927,202.5c0-3.7-3-6.7-6.7-6.7v13.3C924,209.2,927,206.2,927,202.5z"/>
			<path class="st1" d="M921.9,212.4c0.5,0,0.9-0.4,0.9-0.9s-0.4-0.9-0.9-0.9h-1.6v1.8H921.9z"/>
			<path class="st1" d="M917.8,211.5c0,0.5,0.4,0.9,0.9,0.9h1.6v-1.8h-1.6C918.2,210.7,917.8,211.1,917.8,211.5z"/>
			<path class="st1" d="M921.4,214.9c0.5,0,0.9-0.4,0.9-0.9c0-0.5-0.4-0.9-0.9-0.9h-1.1v1.8H921.4z"/>
			<path class="st1" d="M918.3,214c0,0.5,0.4,0.9,0.9,0.9h1.1v-1.8h-1.1C918.7,213.1,918.3,213.5,918.3,214z"/>
		</g>
	</g>
</g>
<g>
	<linearGradient id="SVGID_12_" gradientUnits="userSpaceOnUse" x1="896.4766" y1="70.6171" x2="937.2892" y2="115.3539">
		<stop  offset="0" style="stop-color:#17988D"/>
		<stop  offset="4.409693e-02" style="stop-color:#219883"/>
		<stop  offset="0.1385" style="stop-color:#2C9872"/>
		<stop  offset="0.2428" style="stop-color:#339863"/>
		<stop  offset="0.3591" style="stop-color:#389856"/>
		<stop  offset="0.4938" style="stop-color:#3C984B"/>
		<stop  offset="0.6637" style="stop-color:#3D9843"/>
		<stop  offset="0.9831" style="stop-color:#3E9841"/>
		<stop  offset="0.9916" style="stop-color:#419943"/>
		<stop  offset="0.9947" style="stop-color:#4A9C48"/>
		<stop  offset="0.9969" style="stop-color:#57A052"/>
		<stop  offset="0.9987" style="stop-color:#67A65E"/>
		<stop  offset="1" style="stop-color:#76AD6A"/>
	</linearGradient>
	<circle class="st24" cx="918.5" cy="94.8" r="18.9"/>
	<g>
		<g>
			<path class="st1" d="M921.3,98.6v-15c0-1.5-1.3-2.8-2.8-2.8l0,0c-1.5,0-2.8,1.3-2.8,2.8v15c-1.7,1-2.8,3-2.6,5.2
				c0.3,2.5,2.3,4.6,4.8,4.8c3.3,0.4,6.1-2.2,6.1-5.4C923.9,101.3,922.9,99.6,921.3,98.6z"/>
			<path class="st25" d="M918.5,107.2c-0.1,0-0.3,0-0.5,0c-1.8-0.2-3.3-1.7-3.4-3.5c-0.2-1.5,0.6-3,1.9-3.8l0.7-0.4v-7.3
				c0-0.7,0.6-1.3,1.3-1.3c0.7,0,1.3,0.6,1.3,1.3v7.3l0.7,0.4c1.2,0.7,1.9,2,1.9,3.3c0,1-0.4,2-1.1,2.8
				C920.5,106.8,919.6,107.2,918.5,107.2C918.5,107.2,918.5,107.2,918.5,107.2z"/>
		</g>
		<path class="st26" d="M926.2,83.4c-1.3,0-2.3,1.1-2.3,2.3c0,1.3,1.1,2.3,2.3,2.3c1.3,0,2.3-1.1,2.3-2.3
			C928.5,84.5,927.5,83.4,926.2,83.4z M926.2,86.8c-0.6,0-1.1-0.5-1.1-1.1c0-0.6,0.5-1.1,1.1-1.1c0.6,0,1.1,0.5,1.1,1.1
			C927.2,86.3,926.7,86.8,926.2,86.8z"/>
	</g>
</g>
<g>
	<linearGradient id="SVGID_13_" gradientUnits="userSpaceOnUse" x1="814.5468" y1="72.697" x2="855.3594" y2="117.4339">
		<stop  offset="0" style="stop-color:#17988D"/>
		<stop  offset="4.409693e-02" style="stop-color:#219883"/>
		<stop  offset="0.1385" style="stop-color:#2C9872"/>
		<stop  offset="0.2428" style="stop-color:#339863"/>
		<stop  offset="0.3591" style="stop-color:#389856"/>
		<stop  offset="0.4938" style="stop-color:#3C984B"/>
		<stop  offset="0.6637" style="stop-color:#3D9843"/>
		<stop  offset="0.9831" style="stop-color:#3E9841"/>
		<stop  offset="0.9916" style="stop-color:#419943"/>
		<stop  offset="0.9947" style="stop-color:#4A9C48"/>
		<stop  offset="0.9969" style="stop-color:#57A052"/>
		<stop  offset="0.9987" style="stop-color:#67A65E"/>
		<stop  offset="1" style="stop-color:#76AD6A"/>
	</linearGradient>
	<circle class="st27" cx="836.6" cy="96.8" r="18.9"/>
	<g>
		<path class="st1" d="M828.8,97.1c-0.2,2.1,0,3.8,0.6,5.3c-1.5,2.1-2.2,4.3-2.2,4.3l2.3,1.9c0.4-3.5,1.2-5.9,1.8-7.4
			c0.3-0.6,0.6-1.2,1-1.8l0,0l0,0c2.3-3.9,5.6-7.2,5.6-7.2c3.6-4.3,7.5-6.2,7.5-6.2S829.8,87.8,828.8,97.1z"/>
		<path class="st1" d="M837.8,92.2c-4.2,5.9-6.2,13-6.2,13s5.2,1.5,8.5-0.9c4.9-3.5,1.1-10.6,5.1-18.4C845.2,86,841.4,88,837.8,92.2
			z"/>
	</g>
</g>
<linearGradient id="SVGID_14_" gradientUnits="userSpaceOnUse" x1="410.6564" y1="-183.0598" x2="752.2267" y2="-183.0598">
	<stop  offset="0" style="stop-color:#17988D"/>
	<stop  offset="4.409693e-02" style="stop-color:#219883"/>
	<stop  offset="0.1385" style="stop-color:#2C9872"/>
	<stop  offset="0.2428" style="stop-color:#339863"/>
	<stop  offset="0.3591" style="stop-color:#389856"/>
	<stop  offset="0.4938" style="stop-color:#3C984B"/>
	<stop  offset="0.6637" style="stop-color:#3D9843"/>
	<stop  offset="0.9831" style="stop-color:#3E9841"/>
	<stop  offset="0.9916" style="stop-color:#419943"/>
	<stop  offset="0.9947" style="stop-color:#4A9C48"/>
	<stop  offset="0.9969" style="stop-color:#57A052"/>
	<stop  offset="0.9987" style="stop-color:#67A65E"/>
	<stop  offset="1" style="stop-color:#76AD6A"/>
</linearGradient>
<polygon class="st28" points="442.5,-47.8 410.7,-47.8 416.6,-188 615,-318.3 752.2,-218.9 748.7,-215.4 613.4,-296.6 439.9,-172.9 
	"/>
<path class="st18" d="M949.2-43.4c0.9-1.3,1.2-2.9,0.9-4.6c-0.2-1.2-0.9-2.2-1.4-3.2c-0.1-0.2-0.3-0.4-0.4-0.6
	c-0.2-0.4-0.4-0.8-0.7-1.1c-0.4-0.8-0.9-1.5-1.3-2.3c-0.6-1.1-1.2-2.4-1.5-3.8c0-0.2-0.2-0.4-0.3-0.4c-0.2,0-0.3,0.1-0.3,0.2
	c-0.7,2.5-1.8,4.4-2.9,6.3c-0.5,0.8-1,1.6-1.4,2.5c-0.6,1.1-1.1,2.2-1.1,3.5c0,1.3,0.4,2.5,1.1,3.6c0.7,0.9,1.6,1.6,2.7,2
	c0.6,0.2,1.2,0.3,1.9,0.3c0,0,0,0,0,0C946.3-41,948.1-41.9,949.2-43.4z"/>
<g>
	<path class="st19" d="M869-55.3h-0.6v-3.4v-1.8c0-0.7-0.5-1.2-1.2-1.2c-0.7,0-1.2,0.5-1.2,1.2v1.8v3.4h-4.9v-3.4v-1.8
		c0-0.7-0.5-1.2-1.2-1.2s-1.2,0.5-1.2,1.2v1.8v3.4h-0.6c-0.5,0-1,0.4-1,1v1.6c0,0.5,0.4,1,1,1v4.7c0,0.5,0.3,1.2,0.7,1.6l2.6,2.3
		l1.1,4.7c0,3.1,2.5,5.6,5.6,5.6v-1.9c-2,0-3.7-1.6-3.7-3.7l1.1-4.7l2.6-2.3c0.4-0.4,0.7-1.1,0.7-1.6v-4.7c0.5,0,1-0.4,1-1v-1.6
		C870-54.9,869.5-55.3,869-55.3z M866.5-58.2h1.4v2.9h-1.4V-58.2z M859.2-58.2h1.4v2.9h-1.4V-58.2z"/>
</g>
<polygon class="st18" points="773.2,-58.8 776.6,-58.8 773.2,-52 777.2,-52 774.6,-46.2 777.2,-46.2 773.2,-42.5 769.6,-46.2 
	772,-46.2 774,-50 769.6,-50 "/>
</svg>
