<?xml version="1.0" encoding="UTF-8" standalone="no"?>
<!-- Generator: Adobe Illustrator 21.0.0, SVG Export Plug-In . SVG Version: 6.00 Build 0)  -->

<svg
   xmlns:dc="http://purl.org/dc/elements/1.1/"
   xmlns:cc="http://creativecommons.org/ns#"
   xmlns:rdf="http://www.w3.org/1999/02/22-rdf-syntax-ns#"
   xmlns:svg="http://www.w3.org/2000/svg"
   xmlns="http://www.w3.org/2000/svg"
   xmlns:xlink="http://www.w3.org/1999/xlink"
   xmlns:sodipodi="http://sodipodi.sourceforge.net/DTD/sodipodi-0.dtd"
   xmlns:inkscape="http://www.inkscape.org/namespaces/inkscape"
   version="1.1"
   id="Capa_1"
   x="0px"
   y="0px"
   viewBox="0 0 48.599999 45.799998"
   xml:space="preserve"
   sodipodi:docname="este2.svg"
   width="48.599998"
   height="45.799999"
   inkscape:version="0.92.3 (2405546, 2018-03-11)"><metadata
   id="metadata475"><rdf:RDF><cc:Work
       rdf:about=""><dc:format>image/svg+xml</dc:format><dc:type
         rdf:resource="http://purl.org/dc/dcmitype/StillImage" /><dc:title></dc:title></cc:Work></rdf:RDF></metadata><defs
   id="defs473" /><sodipodi:namedview
   pagecolor="#ffffff"
   bordercolor="#666666"
   borderopacity="1"
   objecttolerance="10"
   gridtolerance="10"
   guidetolerance="10"
   inkscape:pageopacity="0"
   inkscape:pageshadow="2"
   inkscape:window-width="1366"
   inkscape:window-height="713"
   id="namedview471"
   showgrid="false"
   fit-margin-top="0"
   fit-margin-left="0"
   fit-margin-right="0"
   fit-margin-bottom="0"
   inkscape:zoom="0.28031832"
   inkscape:cx="-67.649994"
   inkscape:cy="-136.15001"
   inkscape:window-x="0"
   inkscape:window-y="0"
   inkscape:window-maximized="1"
   inkscape:current-layer="Capa_1" />
<style
   type="text/css"
   id="style2">
	.st0{fill:#009045;}
	.st1{fill:#FFFFFF;}
	.st2{fill:url(#SVGID_1_);}
	.st3{clip-path:url(#SVGID_3_);}
	.st4{clip-path:url(#SVGID_5_);}
	.st5{clip-path:url(#SVGID_7_);}
	.st6{clip-path:url(#SVGID_9_);}
	.st7{fill:#444242;}
	.st8{fill:#C7DFDB;stroke:#C7DFDB;stroke-width:0.15;stroke-miterlimit:10;}
	.st9{fill:none;stroke:#727176;stroke-miterlimit:10;}
	.st10{fill:#727176;}
	.st11{fill:none;stroke:#727176;stroke-width:0.75;stroke-miterlimit:10;}
	.st12{opacity:0.6;fill:none;stroke:#727176;stroke-width:0.75;stroke-miterlimit:10;}
	.st13{fill:url(#SVGID_10_);}
	.st14{fill:url(#SVGID_11_);}
	.st15{fill:url(#SVGID_12_);}
	.st16{fill:#BFC8E3;}
	.st17{fill:#CED2E9;}
	.st18{fill:url(#SVGID_13_);}
	.st19{fill:url(#SVGID_14_);}
</style>
<path
   class="st0"
   d="m 1478.3,-380.9 8.4,6.6 -1.8,2.4 c 0,0 -5.1,-2.4 -5.1,-2.7 -0.1,-0.2 -3.4,-1.9 -3.4,-2.1 -0.1,-0.2 -2.1,-0.4 -1.8,-0.9 0.2,-0.4 3.7,-3.3 3.7,-3.3 z"
   id="path4"
   inkscape:connector-curvature="0"
   style="fill:#009045" />
<path
   class="st1"
   d="M 1276.8,-248.3"
   id="path6"
   inkscape:connector-curvature="0"
   style="fill:#ffffff" />
<path
   class="st0"
   d="m 845.80001,228.8 c 0,0 41.7,37.8 93.9,34.2 0,0 -41.7,-2.2 -72.7,-23.7 0,0 22.3,-22.4 41.8,-14.7 19.5,7.7 47,41.9 75.4,34.6 0,0 -83.8,59.3 -121,-13.8 0,0 -16.2,-9.1 -21.6,-14.1 0,0.1 -0.1,-4.5 4.2,-2.5 z"
   id="path8"
   inkscape:connector-curvature="0"
   style="fill:#009045" />
<linearGradient
   id="SVGID_1_"
   gradientUnits="userSpaceOnUse"
   x1="938.80579"
   y1="507.65741"
   x2="1225.2688"
   y2="507.65741">
	<stop
   offset="0"
   style="stop-color:#17988D"
   id="stop10" />
	<stop
   offset="4.409693e-02"
   style="stop-color:#219883"
   id="stop12" />
	<stop
   offset="0.1385"
   style="stop-color:#2C9872"
   id="stop14" />
	<stop
   offset="0.2428"
   style="stop-color:#339863"
   id="stop16" />
	<stop
   offset="0.3591"
   style="stop-color:#389856"
   id="stop18" />
	<stop
   offset="0.4938"
   style="stop-color:#3C984B"
   id="stop20" />
	<stop
   offset="0.6637"
   style="stop-color:#3D9843"
   id="stop22" />
	<stop
   offset="0.9831"
   style="stop-color:#3E9841"
   id="stop24" />
	<stop
   offset="0.9916"
   style="stop-color:#419943"
   id="stop26" />
	<stop
   offset="0.9947"
   style="stop-color:#4A9C48"
   id="stop28" />
	<stop
   offset="0.9969"
   style="stop-color:#57A052"
   id="stop30" />
	<stop
   offset="0.9987"
   style="stop-color:#67A65E"
   id="stop32" />
	<stop
   offset="1"
   style="stop-color:#76AD6A"
   id="stop34" />
</linearGradient>
<polyline
   class="st2"
   points="938.8,619.4 982.3,619.4 968,516 1111.3,413.9 1222.1,480.8 1225.3,478.1 1112.7,395.9 948.8,503.6   938.8,615.8 "
   id="polyline37"
   style="fill:url(#SVGID_1_)"
   transform="translate(-365.29999,-239)" />
<g
   id="g51"
   transform="translate(-365.29999,-239)">
	
		<text
   transform="matrix(0.9883,0,0,1,1239.2223,620.7679)"
   class="st7"
   style="font-size:113.45700073px;font-family:Roboto-Condensed;fill:#444242"
   id="text39">E</text>

	
		<text
   transform="matrix(1.001,0,0,1,1122.8492,619.4379)"
   class="st7"
   style="font-size:112.0141983px;font-family:Roboto-Condensed;fill:#444242"
   id="text41">U</text>

	
		<text
   transform="matrix(0.996,0,0,1,1186.1881,619.0824)"
   class="st7"
   style="font-size:109.76509857px;font-family:Roboto-Condensed;fill:#444242"
   id="text43">S</text>

	<text
   transform="translate(1057.9703,620.891)"
   style="font-size:109.32800293px;font-family:Roboto-Condensed;fill:#c7dfdb"
   id="text45">.</text>

	<rect
   x="1072.6"
   y="535.40002"
   style="fill:none"
   width="56.5"
   height="107.3"
   id="rect47" />
	
		<text
   transform="translate(1072.6295,618.6683)"
   style="font-size:109.32800293px;font-family:Roboto-Condensed;fill:#c7dfdb;stroke:#c7dfdb;stroke-miterlimit:10"
   id="text49">0   </text>

</g>
<g
   id="g65"
   transform="translate(-365.29999,-239)">
	<defs
   id="defs54">
		
			<rect
   id="SVGID_2_"
   x="1503"
   y="76.599998"
   transform="rotate(-180,1527.3963,132.0189)"
   width="48.700001"
   height="110.8" />
	</defs>
	<clipPath
   id="SVGID_3_">
		<use
   xlink:href="#SVGID_2_"
   style="overflow:visible"
   id="use56"
   x="0"
   y="0"
   width="100%"
   height="100%" />
	</clipPath>
	<g
   class="st3"
   clip-path="url(#SVGID_3_)"
   id="g63">
		<rect
   x="1511.5"
   y="75"
   style="fill:none"
   width="133.2"
   height="146.89999"
   id="rect59" />
		
			<text
   transform="matrix(0.9793,0,0,1,1511.5199,178.2813)"
   style="font-size:135.56860352px;font-family:Roboto-Condensed;fill:#c7dfdb;stroke:#c7dfdb;stroke-miterlimit:10"
   id="text61">H</text>

	</g>
</g>
<g
   id="g107"
   transform="translate(-365.29999,-239)">
	<g
   id="g79">
		<defs
   id="defs68">
			<rect
   id="SVGID_4_"
   x="1033.3"
   y="537.09998"
   width="38.200001"
   height="91.5" />
		</defs>
		<clipPath
   id="SVGID_5_">
			<use
   xlink:href="#SVGID_4_"
   style="overflow:visible"
   id="use70"
   x="0"
   y="0"
   width="100%"
   height="100%" />
		</clipPath>
		<g
   class="st4"
   clip-path="url(#SVGID_5_)"
   id="g77">
			<rect
   x="1000.1"
   y="535.70001"
   style="fill:none"
   width="435.20001"
   height="121.4"
   id="rect73" />
			
				<text
   transform="matrix(0.9793,0,0,1,1000.0826,621.0756)"
   style="font-size:112.03179932px;font-family:Roboto-Condensed;fill:#c7dfdb;stroke:#c7dfdb;stroke-miterlimit:10"
   id="text75">H</text>

		</g>
	</g>
	<g
   id="g101">
		<defs
   id="defs82">
			<rect
   id="SVGID_6_"
   x="993.09998"
   y="535.40002"
   width="52"
   height="50.799999" />
		</defs>
		<clipPath
   id="SVGID_7_">
			<use
   xlink:href="#SVGID_6_"
   style="overflow:visible"
   id="use84"
   x="0"
   y="0"
   width="100%"
   height="100%" />
		</clipPath>
		<g
   class="st5"
   clip-path="url(#SVGID_7_)"
   id="g99">
			<defs
   id="defs88">
				
					<rect
   id="SVGID_8_"
   x="993.09998"
   y="537.20001"
   transform="rotate(-180,1013.2288,582.91465)"
   width="40.299999"
   height="91.5" />
			</defs>
			<clipPath
   id="SVGID_9_">
				<use
   xlink:href="#SVGID_8_"
   style="overflow:visible"
   id="use90"
   x="0"
   y="0"
   width="100%"
   height="100%" />
			</clipPath>
			<g
   class="st6"
   clip-path="url(#SVGID_9_)"
   id="g97">
				<rect
   x="1000.1"
   y="535.79999"
   style="fill:none"
   width="110.1"
   height="121.4"
   id="rect93" />
				
					<text
   transform="matrix(0.9793,0,0,1,1000.109,621.1459)"
   style="font-size:112.03179932px;font-family:Roboto-Condensed;fill:#c7dfdb;stroke:#c7dfdb;stroke-miterlimit:10"
   id="text95">H</text>

			</g>
		</g>
	</g>
	<rect
   x="1007.1"
   y="591.70001"
   class="st7"
   width="11.4"
   height="29.6"
   id="rect103"
   style="fill:#444242" />
	<rect
   x="1007.2"
   y="576.5"
   class="st8"
   width="43.200001"
   height="10.2"
   id="rect105"
   style="fill:#c7dfdb;stroke:#c7dfdb;stroke-width:0.15000001;stroke-miterlimit:10" />
</g>
<g
   id="g147"
   transform="translate(-365.29999,-239)">
	<rect
   x="776.40002"
   y="25.1"
   class="st9"
   width="24"
   height="38.5"
   id="rect109"
   style="fill:none;stroke:#727176;stroke-miterlimit:10" />
	<line
   class="st9"
   x1="776.40002"
   y1="49.700001"
   x2="800.40002"
   y2="49.700001"
   id="line111"
   style="fill:none;stroke:#727176;stroke-miterlimit:10" />
	<line
   class="st9"
   x1="788.40002"
   y1="25.1"
   x2="788.40002"
   y2="49.700001"
   id="line113"
   style="fill:none;stroke:#727176;stroke-miterlimit:10" />
	<line
   class="st9"
   x1="790.90002"
   y1="33.799999"
   x2="790.90002"
   y2="40.799999"
   id="line115"
   style="fill:none;stroke:#727176;stroke-miterlimit:10" />
	<line
   class="st9"
   x1="786.09998"
   y1="33.799999"
   x2="786.09998"
   y2="40.799999"
   id="line117"
   style="fill:none;stroke:#727176;stroke-miterlimit:10" />
	<line
   class="st9"
   x1="783.40002"
   y1="52.700001"
   x2="793.20001"
   y2="52.700001"
   id="line119"
   style="fill:none;stroke:#727176;stroke-miterlimit:10" />
	<polyline
   class="st9"
   points="800.4,63.6 783.4,63.6 752.2,63.6 752.2,46.2 752.2,42.8 754.2,41.5 774.5,41.5 775.6,42.8    776.4,43.7  "
   id="polyline121"
   style="fill:none;stroke:#727176;stroke-miterlimit:10" />
	<line
   class="st9"
   x1="752.20001"
   y1="46.200001"
   x2="776.29999"
   y2="46.200001"
   id="line123"
   style="fill:none;stroke:#727176;stroke-miterlimit:10" />
	<circle
   class="st10"
   cx="756.70001"
   cy="44"
   r="0.89999998"
   id="circle125"
   style="fill:#727176" />
	<circle
   class="st10"
   cx="771.79999"
   cy="44"
   r="0.89999998"
   id="circle127"
   style="fill:#727176" />
	<line
   class="st9"
   x1="755.79999"
   y1="48.799999"
   x2="772.70001"
   y2="48.799999"
   id="line129"
   style="fill:none;stroke:#727176;stroke-miterlimit:10" />
	<polygon
   class="st9"
   points="772.7,52.5 771.8,51.7 756.7,51.7 755.8,52.7 755.8,61.4 772.7,61.4 "
   id="polygon131"
   style="fill:none;stroke:#727176;stroke-miterlimit:10" />
	<line
   class="st9"
   x1="773.90002"
   y1="30.6"
   x2="755"
   y2="30.6"
   id="line133"
   style="fill:none;stroke:#727176;stroke-miterlimit:10" />
	<polyline
   class="st9"
   points="760,18.2 760,26.6 767.7,26.6 767.7,18.2  "
   id="polyline135"
   style="fill:none;stroke:#727176;stroke-miterlimit:10" />
	<polyline
   class="st9"
   points="760,26.9 755,30.5 755,33.1 773.5,33.1  "
   id="polyline137"
   style="fill:none;stroke:#727176;stroke-miterlimit:10" />
	<polyline
   class="st9"
   points="755.5,33.1 773.9,33.1 773.9,30.5 767.7,26.6  "
   id="polyline139"
   style="fill:none;stroke:#727176;stroke-miterlimit:10" />
	<line
   class="st9"
   x1="760.70001"
   y1="26.6"
   x2="755"
   y2="30.5"
   id="line141"
   style="fill:none;stroke:#727176;stroke-miterlimit:10" />
	<circle
   class="st10"
   cx="769"
   cy="31.9"
   r="0.5"
   id="circle143"
   style="fill:#727176" />
	<circle
   class="st10"
   cx="771.20001"
   cy="31.9"
   r="0.5"
   id="circle145"
   style="fill:#727176" />
</g>
<g
   id="g195"
   transform="translate(-365.29999,-239)">
	<rect
   x="365.79999"
   y="248.3"
   class="st9"
   width="21.5"
   height="12.5"
   id="rect149"
   style="fill:none;stroke:#727176;stroke-miterlimit:10" />
	<rect
   x="390.29999"
   y="248.3"
   class="st9"
   width="23.1"
   height="35.900002"
   id="rect151"
   style="fill:none;stroke:#727176;stroke-miterlimit:10" />
	<rect
   x="365.79999"
   y="272"
   class="st9"
   width="22.4"
   height="12.3"
   id="rect153"
   style="fill:none;stroke:#727176;stroke-miterlimit:10" />
	<rect
   x="391.89999"
   y="265.5"
   class="st10"
   width="1.5"
   height="1.5"
   id="rect155"
   style="fill:#727176" />
	<rect
   x="374.39999"
   y="277.39999"
   class="st10"
   width="0.89999998"
   height="0.89999998"
   id="rect157"
   style="fill:#727176" />
	<rect
   x="378.20001"
   y="277.39999"
   class="st10"
   width="0.89999998"
   height="0.89999998"
   id="rect159"
   style="fill:#727176" />
	<line
   class="st9"
   x1="376.29999"
   y1="272.29999"
   x2="376.29999"
   y2="284.20001"
   id="line161"
   style="fill:none;stroke:#727176;stroke-miterlimit:10" />
	<line
   class="st9"
   x1="377.39999"
   y1="272.39999"
   x2="377.39999"
   y2="284.29999"
   id="line163"
   style="fill:none;stroke:#727176;stroke-miterlimit:10" />
	<line
   class="st9"
   x1="368.70001"
   y1="267"
   x2="384.29999"
   y2="267"
   id="line165"
   style="fill:none;stroke:#727176;stroke-miterlimit:10" />
	<path
   class="st9"
   d="m 369.2,267.4 c 0,0 -0.1,4.2 2,4.6"
   id="path167"
   inkscape:connector-curvature="0"
   style="fill:none;stroke:#727176;stroke-miterlimit:10" />
	<path
   class="st9"
   d="m 383.7,267.4 c 0,0 0.1,4.2 -2,4.6"
   id="path169"
   inkscape:connector-curvature="0"
   style="fill:none;stroke:#727176;stroke-miterlimit:10" />
	<line
   class="st9"
   x1="376.70001"
   y1="262.79999"
   x2="376.70001"
   y2="266.79999"
   id="line171"
   style="fill:none;stroke:#727176;stroke-miterlimit:10" />
	<path
   class="st9"
   d="M 376.2,266.1"
   id="path173"
   inkscape:connector-curvature="0"
   style="fill:none;stroke:#727176;stroke-miterlimit:10" />
	<path
   class="st9"
   d="M 376.3,265.9"
   id="path175"
   inkscape:connector-curvature="0"
   style="fill:none;stroke:#727176;stroke-miterlimit:10" />
	<polyline
   class="st11"
   points="374.9,264.9 374.9,266.1 376.5,266.1  "
   id="polyline177"
   style="fill:none;stroke:#727176;stroke-width:0.75;stroke-miterlimit:10" />
	<polyline
   class="st11"
   points="378.6,264.9 378.6,266.1 377,266.1  "
   id="polyline179"
   style="fill:none;stroke:#727176;stroke-width:0.75;stroke-miterlimit:10" />
	<polygon
   class="st11"
   points="404,242 400.8,242 400.4,242 397.4,245.2 406.3,245.2 "
   id="polygon181"
   style="fill:none;stroke:#727176;stroke-width:0.75;stroke-miterlimit:10" />
	<line
   class="st11"
   x1="400.79999"
   y1="239"
   x2="400.79999"
   y2="242"
   id="line183"
   style="fill:none;stroke:#727176;stroke-width:0.75;stroke-miterlimit:10" />
	<line
   class="st11"
   x1="403.29999"
   y1="239"
   x2="403.29999"
   y2="242"
   id="line185"
   style="fill:none;stroke:#727176;stroke-width:0.75;stroke-miterlimit:10" />
	<line
   class="st12"
   x1="397.39999"
   y1="251.2"
   x2="397.39999"
   y2="281.20001"
   id="line187"
   style="opacity:0.6;fill:none;stroke:#727176;stroke-width:0.75;stroke-miterlimit:10" />
	<line
   class="st12"
   x1="400.29999"
   y1="251.2"
   x2="400.29999"
   y2="276.29999"
   id="line189"
   style="opacity:0.6;fill:none;stroke:#727176;stroke-width:0.75;stroke-miterlimit:10" />
	<line
   class="st12"
   x1="403.29999"
   y1="251.7"
   x2="403.29999"
   y2="281.20001"
   id="line191"
   style="opacity:0.6;fill:none;stroke:#727176;stroke-width:0.75;stroke-miterlimit:10" />
	<polyline
   class="st12"
   points="407,251.7 407,276.3 407,279.6  "
   id="polyline193"
   style="opacity:0.6;fill:none;stroke:#727176;stroke-width:0.75;stroke-miterlimit:10" />
</g>
<g
   id="g215"
   transform="translate(-365.29999,-239)">
	<rect
   x="1014"
   y="462.10001"
   class="st9"
   width="38.400002"
   height="21.299999"
   id="rect197"
   style="fill:none;stroke:#727176;stroke-miterlimit:10" />
	<rect
   x="1018.1"
   y="473.70001"
   class="st9"
   width="11.3"
   height="7.6999998"
   id="rect199"
   style="fill:none;stroke:#727176;stroke-miterlimit:10" />
	<rect
   x="1034.9"
   y="473.70001"
   class="st9"
   width="12"
   height="7.6999998"
   id="rect201"
   style="fill:none;stroke:#727176;stroke-miterlimit:10" />
	<circle
   class="st10"
   cx="1022.6"
   cy="468.60001"
   r="1.2"
   id="circle203"
   style="fill:#727176" />
	<circle
   class="st10"
   cx="1032.7"
   cy="468.60001"
   r="1.2"
   id="circle205"
   style="fill:#727176" />
	<circle
   class="st10"
   cx="1042.6"
   cy="468.60001"
   r="1.2"
   id="circle207"
   style="fill:#727176" />
	<rect
   x="1010.9"
   y="483.39999"
   class="st9"
   width="44.900002"
   height="14.1"
   id="rect209"
   style="fill:none;stroke:#727176;stroke-miterlimit:10" />
	<rect
   x="1012.5"
   y="497.89999"
   class="st9"
   width="0.60000002"
   height="3"
   id="rect211"
   style="fill:none;stroke:#727176;stroke-miterlimit:10" />
	<rect
   x="1053.5"
   y="497.5"
   class="st9"
   width="0.60000002"
   height="3"
   id="rect213"
   style="fill:none;stroke:#727176;stroke-miterlimit:10" />
</g>
<g
   id="g249"
   transform="translate(-365.29999,-239)">
	<polygon
   class="st9"
   points="888.5,33.9 888.5,24.6 922.8,24.6 922.8,39.4 888.5,39.4 "
   id="polygon217"
   style="fill:none;stroke:#727176;stroke-miterlimit:10" />
	<polyline
   class="st9"
   points="888.5,32.9 884.5,32.9 884.5,44.4 888.5,44.4 924.8,44.4  "
   id="polyline219"
   style="fill:none;stroke:#727176;stroke-miterlimit:10" />
	<polyline
   class="st9"
   points="922.8,32.9 926.8,32.9 926.8,44.4 922.8,44.4  "
   id="polyline221"
   style="fill:none;stroke:#727176;stroke-miterlimit:10" />
	<polyline
   class="st9"
   points="888.5,35.6 904.6,35.6 922.8,35.6  "
   id="polyline223"
   style="fill:none;stroke:#727176;stroke-miterlimit:10" />
	<line
   class="st9"
   x1="904.59998"
   y1="39.200001"
   x2="904.59998"
   y2="35.599998"
   id="line225"
   style="fill:none;stroke:#727176;stroke-miterlimit:10" />
	<path
   class="st10"
   d="m 896.2,30.9 v 0 c -0.9,0 -1.6,-0.7 -1.6,-1.6 v 0 c 0,-0.9 0.7,-1.6 1.6,-1.6 v 0 c 0.9,0 1.6,0.7 1.6,1.6 v 0 c -0.1,0.9 -0.8,1.6 -1.6,1.6 z"
   id="path227"
   inkscape:connector-curvature="0"
   style="fill:#727176" />
	<path
   class="st10"
   d="m 915.1,30.9 v 0 c -0.9,0 -1.6,-0.7 -1.6,-1.6 v 0 c 0,-0.9 0.7,-1.6 1.6,-1.6 v 0 c 0.9,0 1.6,0.7 1.6,1.6 v 0 c 0,0.9 -0.7,1.6 -1.6,1.6 z"
   id="path229"
   inkscape:connector-curvature="0"
   style="fill:#727176" />
	<rect
   x="888.5"
   y="44.599998"
   class="st10"
   width="1"
   height="2.0999999"
   id="rect231"
   style="fill:#727176" />
	<rect
   x="922.29999"
   y="44.599998"
   class="st10"
   width="1"
   height="2.0999999"
   id="rect233"
   style="fill:#727176" />
	<polyline
   class="st9"
   points="933.8,46.8 937.1,46.8 940.3,46.8  "
   id="polyline235"
   style="fill:none;stroke:#727176;stroke-miterlimit:10" />
	<line
   class="st9"
   x1="937.09998"
   y1="16.6"
   x2="937.09998"
   y2="46.799999"
   id="line237"
   style="fill:none;stroke:#727176;stroke-miterlimit:10" />
	<g
   id="g243">
		<polyline
   class="st9"
   points="932.2,16.4 945.4,16.4 943.6,7.1 935.6,7.1   "
   id="polyline239"
   style="fill:none;stroke:#727176;stroke-miterlimit:10" />
		<polyline
   class="st9"
   points="941.9,16.4 928.7,16.4 930.6,7.1 938.6,7.1   "
   id="polyline241"
   style="fill:none;stroke:#727176;stroke-miterlimit:10" />
	</g>
	<line
   class="st9"
   x1="932.20001"
   y1="16.4"
   x2="932.20001"
   y2="21.700001"
   id="line245"
   style="fill:none;stroke:#727176;stroke-miterlimit:10" />
	<circle
   class="st10"
   cx="932.20001"
   cy="22.5"
   r="1.2"
   id="circle247"
   style="fill:#727176" />
</g>
<g
   id="g292"
   transform="translate(-365.29999,-239)">
	<linearGradient
   id="SVGID_10_"
   gradientUnits="userSpaceOnUse"
   x1="884.23859"
   y1="142.3886"
   x2="925.05121"
   y2="187.1255">
		<stop
   offset="0"
   style="stop-color:#17988D"
   id="stop251" />
		<stop
   offset="4.409693e-02"
   style="stop-color:#219883"
   id="stop253" />
		<stop
   offset="0.1385"
   style="stop-color:#2C9872"
   id="stop255" />
		<stop
   offset="0.2428"
   style="stop-color:#339863"
   id="stop257" />
		<stop
   offset="0.3591"
   style="stop-color:#389856"
   id="stop259" />
		<stop
   offset="0.4938"
   style="stop-color:#3C984B"
   id="stop261" />
		<stop
   offset="0.6637"
   style="stop-color:#3D9843"
   id="stop263" />
		<stop
   offset="0.9831"
   style="stop-color:#3E9841"
   id="stop265" />
		<stop
   offset="0.9916"
   style="stop-color:#419943"
   id="stop267" />
		<stop
   offset="0.9947"
   style="stop-color:#4A9C48"
   id="stop269" />
		<stop
   offset="0.9969"
   style="stop-color:#57A052"
   id="stop271" />
		<stop
   offset="0.9987"
   style="stop-color:#67A65E"
   id="stop273" />
		<stop
   offset="1"
   style="stop-color:#76AD6A"
   id="stop275" />
	</linearGradient>
	<circle
   class="st13"
   cx="906.29999"
   cy="166.5"
   r="18.9"
   id="circle278"
   style="fill:url(#SVGID_10_)" />
	<g
   id="g284">
		<path
   class="st1"
   d="m 898.6,162.6 c -1.1,0 -2,-0.9 -2,-2 0,-1.1 0.9,-2 2,-2 0,0 0,0 0,0 V 155 h -0.9 c -0.2,0 -0.4,0.2 -0.4,0.4 v 1.2 c -0.3,0.1 -0.5,0.2 -0.7,0.3 l -0.9,-0.9 c -0.1,-0.1 -0.4,-0.1 -0.5,0 l -1.2,1.2 c -0.1,0.1 -0.1,0.4 0,0.5 l 0.9,0.9 c -0.1,0.2 -0.2,0.5 -0.3,0.7 h -1.2 c -0.2,0 -0.4,0.2 -0.4,0.4 v 1.8 c 0,0.2 0.2,0.4 0.4,0.4 h 1.2 c 0.1,0.3 0.2,0.5 0.3,0.7 l -0.9,0.9 c -0.1,0.1 -0.1,0.4 0,0.5 l 1.2,1.2 c 0.1,0.1 0.4,0.1 0.5,0 l 0.9,-0.9 c 0.2,0.1 0.5,0.2 0.7,0.3 v 1.2 c 0,0.2 0.2,0.4 0.4,0.4 h 0.9 v -3.6 c 0,0 0,0 0,0 z"
   id="path280"
   inkscape:connector-curvature="0"
   style="fill:#ffffff" />
		<path
   class="st1"
   d="m 903.9,159.4 h -1.2 c -0.1,-0.3 -0.2,-0.5 -0.3,-0.7 l 0.9,-0.9 c 0.1,-0.1 0.1,-0.4 0,-0.5 L 902,156 c -0.1,-0.1 -0.4,-0.1 -0.5,0 l -0.9,0.9 c -0.2,-0.1 -0.5,-0.2 -0.7,-0.3 v -1.2 c 0,-0.2 -0.2,-0.4 -0.4,-0.4 h -0.9 v 3.7 c 1.1,0 2,0.9 2,2 0,1.1 -0.9,2 -2,2 v 3.7 h 0.9 c 0.2,0 0.4,-0.2 0.4,-0.4 v -1.2 c 0.3,-0.1 0.5,-0.2 0.7,-0.3 l 0.9,0.9 c 0.1,0.1 0.4,0.1 0.5,0 l 1.2,-1.2 c 0.1,-0.1 0.1,-0.4 0,-0.5 l -0.9,-0.9 c 0.1,-0.2 0.2,-0.5 0.3,-0.7 h 1.2 c 0.2,0 0.4,-0.2 0.4,-0.4 v -1.8 c 0.1,-0.3 -0.1,-0.5 -0.3,-0.5 z"
   id="path282"
   inkscape:connector-curvature="0"
   style="fill:#ffffff" />
	</g>
	<g
   id="g290">
		<path
   class="st1"
   d="m 911.5,172.4 c -1.6,-0.2 -2.8,-1.8 -2.6,-3.4 0.2,-1.6 1.8,-2.8 3.4,-2.6 v 0 l 0.8,-5.7 -1.3,-0.2 c -0.3,0 -0.6,0.2 -0.7,0.5 l -0.3,1.9 c -0.4,0.1 -0.8,0.2 -1.2,0.3 l -1.1,-1.5 c -0.2,-0.3 -0.6,-0.3 -0.8,-0.1 l -2.2,1.6 c -0.3,0.2 -0.3,0.6 -0.1,0.8 l 1.1,1.5 c -0.2,0.3 -0.5,0.7 -0.6,1.1 l -1.9,-0.3 c -0.3,0 -0.6,0.2 -0.7,0.5 l -0.4,2.7 c 0,0.3 0.2,0.6 0.5,0.7 l 1.9,0.3 c 0.1,0.4 0.2,0.8 0.3,1.2 l -1.5,1.1 c -0.3,0.2 -0.3,0.6 -0.1,0.8 l 1.6,2.2 c 0.2,0.3 0.6,0.3 0.8,0.1 l 1.5,-1.1 c 0.3,0.2 0.7,0.5 1.1,0.6 l -0.3,1.9 c 0,0.3 0.2,0.6 0.5,0.7 l 1.3,0.2 z"
   id="path286"
   inkscape:connector-curvature="0"
   style="fill:#ffffff" />
		<path
   class="st1"
   d="m 920.4,168.6 -1.9,-0.3 c -0.1,-0.4 -0.2,-0.8 -0.3,-1.2 l 1.5,-1.1 c 0.3,-0.2 0.3,-0.6 0.1,-0.8 l -1.6,-2.2 c -0.2,-0.3 -0.6,-0.3 -0.8,-0.1 l -1.5,1.1 c -0.3,-0.2 -0.7,-0.5 -1.1,-0.6 l 0.3,-1.9 c 0,-0.3 -0.2,-0.6 -0.5,-0.7 l -1.3,-0.2 -0.8,5.7 c 1.6,0.2 2.8,1.8 2.6,3.4 -0.2,1.6 -1.8,2.8 -3.4,2.6 l -0.8,5.7 1.3,0.2 c 0.3,0 0.6,-0.2 0.7,-0.5 l 0.3,-1.9 c 0.4,-0.1 0.8,-0.2 1.2,-0.3 l 1.1,1.5 c 0.2,0.3 0.6,0.3 0.8,0.1 l 2.2,-1.6 c 0.3,-0.2 0.3,-0.6 0.1,-0.8 l -1.1,-1.5 c 0.2,-0.3 0.5,-0.7 0.6,-1.1 l 1.9,0.3 c 0.3,0 0.6,-0.2 0.7,-0.5 l 0.4,-2.7 c -0.2,-0.2 -0.4,-0.5 -0.7,-0.6 z"
   id="path288"
   inkscape:connector-curvature="0"
   style="fill:#ffffff" />
	</g>
</g>
<g
   id="g353"
   transform="translate(-365.29999,-239)">
	<linearGradient
   id="SVGID_11_"
   gradientUnits="userSpaceOnUse"
   x1="898.2525"
   y1="178.7907"
   x2="939.06512"
   y2="223.5275">
		<stop
   offset="0"
   style="stop-color:#17988D"
   id="stop294" />
		<stop
   offset="4.409693e-02"
   style="stop-color:#219883"
   id="stop296" />
		<stop
   offset="0.1385"
   style="stop-color:#2C9872"
   id="stop298" />
		<stop
   offset="0.2428"
   style="stop-color:#339863"
   id="stop300" />
		<stop
   offset="0.3591"
   style="stop-color:#389856"
   id="stop302" />
		<stop
   offset="0.4938"
   style="stop-color:#3C984B"
   id="stop304" />
		<stop
   offset="0.6637"
   style="stop-color:#3D9843"
   id="stop306" />
		<stop
   offset="0.9831"
   style="stop-color:#3E9841"
   id="stop308" />
		<stop
   offset="0.9916"
   style="stop-color:#419943"
   id="stop310" />
		<stop
   offset="0.9947"
   style="stop-color:#4A9C48"
   id="stop312" />
		<stop
   offset="0.9969"
   style="stop-color:#57A052"
   id="stop314" />
		<stop
   offset="0.9987"
   style="stop-color:#67A65E"
   id="stop316" />
		<stop
   offset="1"
   style="stop-color:#76AD6A"
   id="stop318" />
	</linearGradient>
	<circle
   class="st14"
   cx="920.29999"
   cy="202.89999"
   r="18.9"
   id="circle321"
   style="fill:url(#SVGID_11_)" />
	<g
   id="g351">
		<path
   class="st1"
   d="m 920.3,194.1 v 0 c -0.3,0 -0.5,-0.2 -0.5,-0.5 v -2 c 0,-0.3 0.2,-0.5 0.5,-0.5 v 0 c 0.3,0 0.5,0.2 0.5,0.5 v 2 c 0,0.3 -0.2,0.5 -0.5,0.5 z"
   id="path323"
   inkscape:connector-curvature="0"
   style="fill:#ffffff" />
		<path
   class="st1"
   d="m 914.3,196.6 v 0 c -0.2,0.2 -0.5,0.2 -0.8,0 l -1.4,-1.4 c -0.2,-0.2 -0.2,-0.5 0,-0.8 v 0 c 0.2,-0.2 0.5,-0.2 0.8,0 l 1.4,1.4 c 0.3,0.2 0.3,0.5 0,0.8 z"
   id="path325"
   inkscape:connector-curvature="0"
   style="fill:#ffffff" />
		<path
   class="st1"
   d="m 911.9,202.5 v 0 c 0,0.3 -0.2,0.5 -0.5,0.5 h -2 c -0.3,0 -0.5,-0.2 -0.5,-0.5 v 0 c 0,-0.3 0.2,-0.5 0.5,-0.5 h 2 c 0.2,0 0.5,0.2 0.5,0.5 z"
   id="path327"
   inkscape:connector-curvature="0"
   style="fill:#ffffff" />
		<path
   class="st1"
   d="m 914.3,208.4 v 0 c 0.2,0.2 0.2,0.5 0,0.8 l -1.4,1.4 c -0.2,0.2 -0.5,0.2 -0.8,0 v 0 c -0.2,-0.2 -0.2,-0.5 0,-0.8 l 1.4,-1.4 c 0.3,-0.2 0.6,-0.2 0.8,0 z"
   id="path329"
   inkscape:connector-curvature="0"
   style="fill:#ffffff" />
		<path
   class="st1"
   d="m 926.2,208.4 v 0 c 0.2,-0.2 0.5,-0.2 0.8,0 l 1.4,1.4 c 0.2,0.2 0.2,0.5 0,0.8 v 0 c -0.2,0.2 -0.5,0.2 -0.8,0 l -1.4,-1.4 c -0.2,-0.2 -0.2,-0.6 0,-0.8 z"
   id="path331"
   inkscape:connector-curvature="0"
   style="fill:#ffffff" />
		<path
   class="st1"
   d="m 928.7,202.5 v 0 c 0,-0.3 0.2,-0.5 0.5,-0.5 h 2 c 0.3,0 0.5,0.2 0.5,0.5 v 0 c 0,0.3 -0.2,0.5 -0.5,0.5 h -2 c -0.3,0 -0.5,-0.2 -0.5,-0.5 z"
   id="path333"
   inkscape:connector-curvature="0"
   style="fill:#ffffff" />
		<path
   class="st1"
   d="m 926.2,196.6 v 0 c -0.2,-0.2 -0.2,-0.5 0,-0.8 l 1.4,-1.4 c 0.2,-0.2 0.5,-0.2 0.8,0 v 0 c 0.2,0.2 0.2,0.5 0,0.8 l -1.4,1.4 c -0.2,0.2 -0.6,0.2 -0.8,0 z"
   id="path335"
   inkscape:connector-curvature="0"
   style="fill:#ffffff" />
		<g
   id="g349">
			<path
   class="st1"
   d="m 913.6,202.5 c 0,3.7 3,6.7 6.7,6.7 v -13.3 c -3.7,-0.1 -6.7,2.9 -6.7,6.6 z"
   id="path337"
   inkscape:connector-curvature="0"
   style="fill:#ffffff" />
			<path
   class="st1"
   d="m 927,202.5 c 0,-3.7 -3,-6.7 -6.7,-6.7 v 13.3 c 3.7,0.1 6.7,-2.9 6.7,-6.6 z"
   id="path339"
   inkscape:connector-curvature="0"
   style="fill:#ffffff" />
			<path
   class="st1"
   d="m 921.9,212.4 c 0.5,0 0.9,-0.4 0.9,-0.9 0,-0.5 -0.4,-0.9 -0.9,-0.9 h -1.6 v 1.8 z"
   id="path341"
   inkscape:connector-curvature="0"
   style="fill:#ffffff" />
			<path
   class="st1"
   d="m 917.8,211.5 c 0,0.5 0.4,0.9 0.9,0.9 h 1.6 v -1.8 h -1.6 c -0.5,0.1 -0.9,0.5 -0.9,0.9 z"
   id="path343"
   inkscape:connector-curvature="0"
   style="fill:#ffffff" />
			<path
   class="st1"
   d="m 921.4,214.9 c 0.5,0 0.9,-0.4 0.9,-0.9 0,-0.5 -0.4,-0.9 -0.9,-0.9 h -1.1 v 1.8 z"
   id="path345"
   inkscape:connector-curvature="0"
   style="fill:#ffffff" />
			<path
   class="st1"
   d="m 918.3,214 c 0,0.5 0.4,0.9 0.9,0.9 h 1.1 v -1.8 h -1.1 c -0.5,0 -0.9,0.4 -0.9,0.9 z"
   id="path347"
   inkscape:connector-curvature="0"
   style="fill:#ffffff" />
		</g>
	</g>
</g>
<g
   id="g394"
   transform="translate(-365.29999,-239)">
	<linearGradient
   id="SVGID_12_"
   gradientUnits="userSpaceOnUse"
   x1="896.47662"
   y1="70.617104"
   x2="937.28918"
   y2="115.3539">
		<stop
   offset="0"
   style="stop-color:#17988D"
   id="stop355" />
		<stop
   offset="4.409693e-02"
   style="stop-color:#219883"
   id="stop357" />
		<stop
   offset="0.1385"
   style="stop-color:#2C9872"
   id="stop359" />
		<stop
   offset="0.2428"
   style="stop-color:#339863"
   id="stop361" />
		<stop
   offset="0.3591"
   style="stop-color:#389856"
   id="stop363" />
		<stop
   offset="0.4938"
   style="stop-color:#3C984B"
   id="stop365" />
		<stop
   offset="0.6637"
   style="stop-color:#3D9843"
   id="stop367" />
		<stop
   offset="0.9831"
   style="stop-color:#3E9841"
   id="stop369" />
		<stop
   offset="0.9916"
   style="stop-color:#419943"
   id="stop371" />
		<stop
   offset="0.9947"
   style="stop-color:#4A9C48"
   id="stop373" />
		<stop
   offset="0.9969"
   style="stop-color:#57A052"
   id="stop375" />
		<stop
   offset="0.9987"
   style="stop-color:#67A65E"
   id="stop377" />
		<stop
   offset="1"
   style="stop-color:#76AD6A"
   id="stop379" />
	</linearGradient>
	<circle
   class="st15"
   cx="918.5"
   cy="94.800003"
   r="18.9"
   id="circle382"
   style="fill:url(#SVGID_12_)" />
	<g
   id="g392">
		<g
   id="g388">
			<path
   class="st1"
   d="m 921.3,98.6 v -15 c 0,-1.5 -1.3,-2.8 -2.8,-2.8 v 0 c -1.5,0 -2.8,1.3 -2.8,2.8 v 15 c -1.7,1 -2.8,3 -2.6,5.2 0.3,2.5 2.3,4.6 4.8,4.8 3.3,0.4 6.1,-2.2 6.1,-5.4 -0.1,-1.9 -1.1,-3.6 -2.7,-4.6 z"
   id="path384"
   inkscape:connector-curvature="0"
   style="fill:#ffffff" />
			<path
   class="st16"
   d="m 918.5,107.2 c -0.1,0 -0.3,0 -0.5,0 -1.8,-0.2 -3.3,-1.7 -3.4,-3.5 -0.2,-1.5 0.6,-3 1.9,-3.8 l 0.7,-0.4 v -7.3 c 0,-0.7 0.6,-1.3 1.3,-1.3 0.7,0 1.3,0.6 1.3,1.3 v 7.3 l 0.7,0.4 c 1.2,0.7 1.9,2 1.9,3.3 0,1 -0.4,2 -1.1,2.8 -0.8,0.8 -1.7,1.2 -2.8,1.2 0,0 0,0 0,0 z"
   id="path386"
   inkscape:connector-curvature="0"
   style="fill:#bfc8e3" />
		</g>
		<path
   class="st17"
   d="m 926.2,83.4 c -1.3,0 -2.3,1.1 -2.3,2.3 0,1.3 1.1,2.3 2.3,2.3 1.3,0 2.3,-1.1 2.3,-2.3 0,-1.2 -1,-2.3 -2.3,-2.3 z m 0,3.4 c -0.6,0 -1.1,-0.5 -1.1,-1.1 0,-0.6 0.5,-1.1 1.1,-1.1 0.6,0 1.1,0.5 1.1,1.1 -0.1,0.6 -0.6,1.1 -1.1,1.1 z"
   id="path390"
   inkscape:connector-curvature="0"
   style="fill:#ced2e9" />
	</g>
</g>
<g
   id="g431"
   transform="translate(-365.29999,-239)">
	<linearGradient
   id="SVGID_13_"
   gradientUnits="userSpaceOnUse"
   x1="814.54681"
   y1="72.696999"
   x2="855.35938"
   y2="117.4339">
		<stop
   offset="0"
   style="stop-color:#17988D"
   id="stop396" />
		<stop
   offset="4.409693e-02"
   style="stop-color:#219883"
   id="stop398" />
		<stop
   offset="0.1385"
   style="stop-color:#2C9872"
   id="stop400" />
		<stop
   offset="0.2428"
   style="stop-color:#339863"
   id="stop402" />
		<stop
   offset="0.3591"
   style="stop-color:#389856"
   id="stop404" />
		<stop
   offset="0.4938"
   style="stop-color:#3C984B"
   id="stop406" />
		<stop
   offset="0.6637"
   style="stop-color:#3D9843"
   id="stop408" />
		<stop
   offset="0.9831"
   style="stop-color:#3E9841"
   id="stop410" />
		<stop
   offset="0.9916"
   style="stop-color:#419943"
   id="stop412" />
		<stop
   offset="0.9947"
   style="stop-color:#4A9C48"
   id="stop414" />
		<stop
   offset="0.9969"
   style="stop-color:#57A052"
   id="stop416" />
		<stop
   offset="0.9987"
   style="stop-color:#67A65E"
   id="stop418" />
		<stop
   offset="1"
   style="stop-color:#76AD6A"
   id="stop420" />
	</linearGradient>
	<circle
   class="st18"
   cx="836.59998"
   cy="96.800003"
   r="18.9"
   id="circle423"
   style="fill:url(#SVGID_13_)" />
	<g
   id="g429">
		<path
   class="st1"
   d="m 828.8,97.1 c -0.2,2.1 0,3.8 0.6,5.3 -1.5,2.1 -2.2,4.3 -2.2,4.3 l 2.3,1.9 c 0.4,-3.5 1.2,-5.9 1.8,-7.4 0.3,-0.6 0.6,-1.2 1,-1.8 v 0 0 c 2.3,-3.9 5.6,-7.2 5.6,-7.2 3.6,-4.3 7.5,-6.2 7.5,-6.2 0,0 -15.6,1.8 -16.6,11.1 z"
   id="path425"
   inkscape:connector-curvature="0"
   style="fill:#ffffff" />
		<path
   class="st1"
   d="m 837.8,92.2 c -4.2,5.9 -6.2,13 -6.2,13 0,0 5.2,1.5 8.5,-0.9 4.9,-3.5 1.1,-10.6 5.1,-18.4 0,0.1 -3.8,2.1 -7.4,6.3 z"
   id="path427"
   inkscape:connector-curvature="0"
   style="fill:#ffffff" />
	</g>
</g>
<linearGradient
   id="SVGID_14_"
   gradientUnits="userSpaceOnUse"
   x1="410.6564"
   y1="-183.0598"
   x2="752.22668"
   y2="-183.0598">
	<stop
   offset="0"
   style="stop-color:#17988D"
   id="stop433" />
	<stop
   offset="4.409693e-02"
   style="stop-color:#219883"
   id="stop435" />
	<stop
   offset="0.1385"
   style="stop-color:#2C9872"
   id="stop437" />
	<stop
   offset="0.2428"
   style="stop-color:#339863"
   id="stop439" />
	<stop
   offset="0.3591"
   style="stop-color:#389856"
   id="stop441" />
	<stop
   offset="0.4938"
   style="stop-color:#3C984B"
   id="stop443" />
	<stop
   offset="0.6637"
   style="stop-color:#3D9843"
   id="stop445" />
	<stop
   offset="0.9831"
   style="stop-color:#3E9841"
   id="stop447" />
	<stop
   offset="0.9916"
   style="stop-color:#419943"
   id="stop449" />
	<stop
   offset="0.9947"
   style="stop-color:#4A9C48"
   id="stop451" />
	<stop
   offset="0.9969"
   style="stop-color:#57A052"
   id="stop453" />
	<stop
   offset="0.9987"
   style="stop-color:#67A65E"
   id="stop455" />
	<stop
   offset="1"
   style="stop-color:#76AD6A"
   id="stop457" />
</linearGradient>
<polygon
   class="st19"
   points="416.6,-188 615,-318.3 752.2,-218.9 748.7,-215.4 613.4,-296.6 439.9,-172.9 442.5,-47.8 410.7,-47.8 "
   id="polygon460"
   style="fill:url(#SVGID_14_)"
   transform="translate(-365.29999,-239)" />
<path
   class="st9"
   d="m 583.90001,-282.4 c 0.9,-1.3 1.2,-2.9 0.9,-4.6 -0.2,-1.2 -0.9,-2.2 -1.4,-3.2 -0.1,-0.2 -0.3,-0.4 -0.4,-0.6 -0.2,-0.4 -0.4,-0.8 -0.7,-1.1 -0.4,-0.8 -0.9,-1.5 -1.3,-2.3 -0.6,-1.1 -1.2,-2.4 -1.5,-3.8 0,-0.2 -0.2,-0.4 -0.3,-0.4 -0.2,0 -0.3,0.1 -0.3,0.2 -0.7,2.5 -1.8,4.4 -2.9,6.3 -0.5,0.8 -1,1.6 -1.4,2.5 -0.6,1.1 -1.1,2.2 -1.1,3.5 0,1.3 0.4,2.5 1.1,3.6 0.7,0.9 1.6,1.6 2.7,2 0.6,0.2 1.2,0.3 1.9,0.3 0,0 0,0 0,0 1.8,0 3.6,-0.9 4.7,-2.4 z"
   id="path462"
   inkscape:connector-curvature="0"
   style="fill:none;stroke:#727176;stroke-miterlimit:10" />
<g
   id="g466"
   transform="translate(-365.29999,-239)">
	<path
   class="st10"
   d="m 869,-55.3 h -0.6 v -3.4 -1.8 c 0,-0.7 -0.5,-1.2 -1.2,-1.2 -0.7,0 -1.2,0.5 -1.2,1.2 v 1.8 3.4 h -4.9 v -3.4 -1.8 c 0,-0.7 -0.5,-1.2 -1.2,-1.2 -0.7,0 -1.2,0.5 -1.2,1.2 v 1.8 3.4 h -0.6 c -0.5,0 -1,0.4 -1,1 v 1.6 c 0,0.5 0.4,1 1,1 v 4.7 c 0,0.5 0.3,1.2 0.7,1.6 l 2.6,2.3 1.1,4.7 c 0,3.1 2.5,5.6 5.6,5.6 v -1.9 c -2,0 -3.7,-1.6 -3.7,-3.7 l 1.1,-4.7 2.6,-2.3 c 0.4,-0.4 0.7,-1.1 0.7,-1.6 v -4.7 c 0.5,0 1,-0.4 1,-1 v -1.6 c 0.2,-0.6 -0.3,-1 -0.8,-1 z m -2.5,-2.9 h 1.4 v 2.9 h -1.4 z m -7.3,0 h 1.4 v 2.9 h -1.4 z"
   id="path464"
   inkscape:connector-curvature="0"
   style="fill:#727176" />
</g>
<polygon
   class="st9"
   points="773.2,-52 777.2,-52 774.6,-46.2 777.2,-46.2 773.2,-42.5 769.6,-46.2 772,-46.2 774,-50 769.6,-50 773.2,-58.8 776.6,-58.8 "
   id="polygon468"
   style="fill:none;stroke:#727176;stroke-miterlimit:10"
   transform="translate(-365.29999,-239)" />
</svg>