<?xml version="1.0" encoding="UTF-8" standalone="no"?>
<svg
   xmlns:dc="http://purl.org/dc/elements/1.1/"
   xmlns:cc="http://creativecommons.org/ns#"
   xmlns:rdf="http://www.w3.org/1999/02/22-rdf-syntax-ns#"
   xmlns:svg="http://www.w3.org/2000/svg"
   xmlns="http://www.w3.org/2000/svg"
   xmlns:sodipodi="http://sodipodi.sourceforge.net/DTD/sodipodi-0.dtd"
   xmlns:inkscape="http://www.inkscape.org/namespaces/inkscape"
   version="1.1"
   viewBox="0 0 129 129"
   enable-background="new 0 0 129 129"
   id="svg24"
   sodipodi:docname="sun.svg"
   inkscape:version="0.92.3 (2405546, 2018-03-11)">
  <metadata
     id="metadata30">
    <rdf:RDF>
      <cc:Work
         rdf:about="">
        <dc:format>image/svg+xml</dc:format>
        <dc:type
           rdf:resource="http://purl.org/dc/dcmitype/StillImage" />
        <dc:title></dc:title>
      </cc:Work>
    </rdf:RDF>
  </metadata>
  <defs
     id="defs28" />
  <sodipodi:namedview
     pagecolor="#ffffff"
     bordercolor="#666666"
     borderopacity="1"
     objecttolerance="10"
     gridtolerance="10"
     guidetolerance="10"
     inkscape:pageopacity="0"
     inkscape:pageshadow="2"
     inkscape:window-width="640"
     inkscape:window-height="480"
     id="namedview26"
     showgrid="false"
     inkscape:zoom="1.8294574"
     inkscape:cx="64.5"
     inkscape:cy="64.5"
     inkscape:window-x="0"
     inkscape:window-y="0"
     inkscape:window-maximized="0"
     inkscape:current-layer="svg24" />
  <g
     id="g22"
     style="fill:#ffffff">
    <g
       id="g20"
       style="fill:#ffffff">
      <path
         d="m64.5,92.6c15.5,0 28-12.6 28-28s-12.6-28-28-28-28,12.6-28,28 12.5,28 28,28zm0-47.9c11,0 19.9,8.9 19.9,19.9 0,11-8.9,19.9-19.9,19.9s-19.9-8.9-19.9-19.9c0-11 8.9-19.9 19.9-19.9z"
         id="path2"
         style="fill:#ffffff" />
      <path
         d="m68.6,23.6v-12.9c0-2.3-1.8-4.1-4.1-4.1s-4.1,1.8-4.1,4.1v12.9c0,2.3 1.8,4.1 4.1,4.1s4.1-1.8 4.1-4.1z"
         id="path4"
         style="fill:#ffffff" />
      <path
         d="m60.4,105.6v12.9c0,2.3 1.8,4.1 4.1,4.1s4.1-1.8 4.1-4.1v-12.9c0-2.3-1.8-4.1-4.1-4.1s-4.1,1.8-4.1,4.1z"
         id="path6"
         style="fill:#ffffff" />
      <path
         d="m96.4,38.5l9.1-9.1c1.6-1.6 1.6-4.2 0-5.8-1.6-1.6-4.2-1.6-5.8,0l-9.1,9.1c-1.6,1.6-1.6,4.2 0,5.8 0.8,0.8 1.8,1.2 2.9,1.2s2.1-0.4 2.9-1.2z"
         id="path8"
         style="fill:#ffffff" />
      <path
         d="m23.5,105.6c0.8,0.8 1.8,1.2 2.9,1.2 1,0 2.1-0.4 2.9-1.2l9.1-9.1c1.6-1.6 1.6-4.2 0-5.8-1.6-1.6-4.2-1.6-5.8,0l-9.1,9.1c-1.6,1.6-1.6,4.2 0,5.8z"
         id="path10"
         style="fill:#ffffff" />
      <path
         d="m122.5,64.6c0-2.3-1.8-4.1-4.1-4.1h-12.9c-2.3,0-4.1,1.8-4.1,4.1 0,2.3 1.8,4.1 4.1,4.1h12.9c2.2,1.42109e-14 4.1-1.8 4.1-4.1z"
         id="path12"
         style="fill:#ffffff" />
      <path
         d="m10.6,68.7h12.9c2.3,0 4.1-1.8 4.1-4.1 0-2.3-1.8-4.1-4.1-4.1h-12.9c-2.3,0-4.1,1.8-4.1,4.1 0,2.3 1.9,4.1 4.1,4.1z"
         id="path14"
         style="fill:#ffffff" />
      <path
         d="m102.6,106.8c1,0 2.1-0.4 2.9-1.2 1.6-1.6 1.6-4.2 0-5.8l-9.1-9.1c-1.6-1.6-4.2-1.6-5.8,0-1.6,1.6-1.6,4.2 0,5.8l9.1,9.1c0.8,0.8 1.9,1.2 2.9,1.2z"
         id="path16"
         style="fill:#ffffff" />
      <path
         d="m38.4,38.5c1.6-1.6 1.6-4.2 0-5.8l-9.1-9.1c-1.6-1.6-4.2-1.6-5.8,0-1.6,1.6-1.6,4.2 0,5.8l9.1,9.1c0.8,0.8 1.8,1.2 2.9,1.2s2.1-0.4 2.9-1.2z"
         id="path18"
         style="fill:#ffffff" />
    </g>
  </g>
</svg>
